<?xml version="1.0" encoding="UTF-8"?>
<!DOCTYPE svg PUBLIC "-//W3C//DTD SVG 1.1//EN" "http://www.w3.org/Graphics/SVG/1.1/DTD/svg11.dtd">
<svg xmlns="http://www.w3.org/2000/svg" version="1.1" width="500px" height="500px" style="shape-rendering:geometricPrecision; text-rendering:geometricPrecision; image-rendering:optimizeQuality; fill-rule:evenodd; clip-rule:evenodd" xmlns:xlink="http://www.w3.org/1999/xlink">
<g><path style="opacity:0.993" fill="#fefefe" d="M 47.5,-0.5 C 182.5,-0.5 317.5,-0.5 452.5,-0.5C 454.521,1.03244 456.021,3.03244 457,5.5C 457.667,167.833 457.667,330.167 457,492.5C 455.684,495.308 453.85,497.641 451.5,499.5C 449.5,499.5 447.5,499.5 445.5,499.5C 380.65,462.063 315.316,425.063 249.5,388.5C 184.371,425.232 119.371,462.232 54.5,499.5C 52.8333,499.5 51.1667,499.5 49.5,499.5C 46.6028,498.442 44.4361,496.442 43,493.5C 42.3333,330.5 42.3333,167.5 43,4.5C 44.025,2.31305 45.525,0.646381 47.5,-0.5 Z"/></g>
</svg>
