<?xml version="1.0" encoding="UTF-8"?>
<!DOCTYPE svg PUBLIC "-//W3C//DTD SVG 1.1//EN" "http://www.w3.org/Graphics/SVG/1.1/DTD/svg11.dtd">
<svg xmlns="http://www.w3.org/2000/svg" version="1.1" width="500px" height="500px" style="shape-rendering:geometricPrecision; text-rendering:geometricPrecision; image-rendering:optimizeQuality; fill-rule:evenodd; clip-rule:evenodd" xmlns:xlink="http://www.w3.org/1999/xlink">
<g><path style="opacity:0.046" fill="#1e1e1e" d="M 219.5,-0.5 C 222.833,-0.5 226.167,-0.5 229.5,-0.5C 225.684,0.482425 221.684,1.14909 217.5,1.5C 218.167,0.833333 218.833,0.166667 219.5,-0.5 Z"/></g>
<g><path style="opacity:0.996" fill="#f9f9f9" d="M 229.5,-0.5 C 240.833,-0.5 252.167,-0.5 263.5,-0.5C 268.658,0.458435 273.991,1.1251 279.5,1.5C 322.095,5.57844 360.428,20.2451 394.5,45.5C 394.973,46.9063 395.973,47.573 397.5,47.5C 401.146,49.8171 404.48,52.4838 407.5,55.5C 407.973,56.9063 408.973,57.573 410.5,57.5C 412.167,58.5 413.5,59.8333 414.5,61.5C 414.973,62.9063 415.973,63.573 417.5,63.5C 427.545,72.2113 436.545,81.8779 444.5,92.5C 444.738,94.4044 445.738,95.7377 447.5,96.5C 449.984,98.8003 451.984,101.467 453.5,104.5C 453.427,106.027 454.094,107.027 455.5,107.5C 458.241,109.975 460.241,112.975 461.5,116.5C 461.427,118.027 462.094,119.027 463.5,119.5C 463.833,120.167 464.167,120.833 464.5,121.5C 464.427,123.027 465.094,124.027 466.5,124.5C 467.674,125.514 468.34,126.847 468.5,128.5C 468.427,130.027 469.094,131.027 470.5,131.5C 477.194,143.223 482.527,155.556 486.5,168.5C 486.054,171.01 486.72,173.01 488.5,174.5C 488.32,178.286 489.32,181.619 491.5,184.5C 492.917,187.998 493.583,191.665 493.5,195.5C 493.565,198.428 494.232,201.095 495.5,203.5C 496.966,208.692 497.633,214.025 497.5,219.5C 497.596,225.373 498.263,231.04 499.5,236.5C 499.5,249.5 499.5,262.5 499.5,275.5C 493.198,328.455 472.364,375.122 437,415.5C 427.626,425.042 418.126,434.375 408.5,443.5C 398.666,450.824 388.666,457.991 378.5,465C 370.432,469.7 362.099,473.867 353.5,477.5C 351.447,477.402 349.78,478.069 348.5,479.5C 346.133,480.914 343.633,482.248 341,483.5C 318.866,491.057 295.366,496.39 270.5,499.5C 256.5,499.5 242.5,499.5 228.5,499.5C 193.395,496.284 160.395,486.284 129.5,469.5C 129.027,468.094 128.027,467.427 126.5,467.5C 124.847,467.34 123.514,466.674 122.5,465.5C 122.027,464.094 121.027,463.427 119.5,463.5C 109.326,457.99 99.9928,451.324 91.5,443.5C 91.0269,442.094 90.0269,441.427 88.5,441.5C 65.7876,422.462 47.1209,400.129 32.5,374.5C 32.573,372.973 31.9063,371.973 30.5,371.5C 29.0687,370.22 28.4021,368.553 28.5,366.5C 26.4049,361.973 24.0716,357.639 21.5,353.5C 20.6618,353.158 20.3284,352.492 20.5,351.5C 20.2927,348.759 19.2927,346.426 17.5,344.5C 17.5979,342.447 16.9313,340.78 15.5,339.5C 14.7387,335.216 13.4053,331.216 11.5,327.5C 10.1227,321.313 8.45607,315.313 6.5,309.5C 6.5,309.167 6.5,308.833 6.5,308.5C 6.19767,305.627 5.53101,302.961 4.5,300.5C 2.17362,291.519 0.506951,282.519 -0.5,273.5C -0.5,273.167 -0.5,272.833 -0.5,272.5C 0.833333,272.167 0.833333,271.833 -0.5,271.5C -0.5,255.5 -0.5,239.5 -0.5,223.5C 0.650441,214.747 2.31711,206.081 4.5,197.5C 5.92381,195.485 6.59047,193.152 6.5,190.5C 6.5,190.167 6.5,189.833 6.5,189.5C 7.7682,187.095 8.43487,184.428 8.5,181.5C 8.5,181.167 8.5,180.833 8.5,180.5C 10.8061,176.915 12.1394,172.915 12.5,168.5C 12.2594,166.102 12.9261,164.102 14.5,162.5C 16.3969,160.302 17.3969,157.636 17.5,154.5C 18.9313,153.22 19.5979,151.553 19.5,149.5C 19.6596,147.847 20.3263,146.514 21.5,145.5C 23.6246,142.912 24.9579,139.912 25.5,136.5C 26.1667,136.5 26.5,136.167 26.5,135.5C 27.404,134.791 27.7373,133.791 27.5,132.5C 29.7593,131.656 30.7593,129.989 30.5,127.5C 31.9063,127.027 32.573,126.027 32.5,124.5C 32.6596,122.847 33.3263,121.514 34.5,120.5C 35.9063,120.027 36.573,119.027 36.5,117.5C 37.9063,117.027 38.573,116.027 38.5,114.5C 39.9063,114.027 40.573,113.027 40.5,111.5C 41.9063,111.027 42.573,110.027 42.5,108.5C 43.9063,108.027 44.573,107.027 44.5,105.5C 46.5869,104.415 47.9202,102.749 48.5,100.5C 48.7822,99.2223 49.4489,98.2223 50.5,97.5C 52.5869,96.4154 53.9202,94.7488 54.5,92.5C 56.1667,91.5 57.5,90.1667 58.5,88.5C 58.9321,87.2905 59.5987,86.2905 60.5,85.5C 62.1667,84.5 63.5,83.1667 64.5,81.5C 69.803,74.5297 75.803,68.1964 82.5,62.5C 84.4044,62.2624 85.7377,61.2624 86.5,59.5C 88.2274,57.4333 90.2274,55.7666 92.5,54.5C 94.7488,53.9202 96.4154,52.5869 97.5,50.5C 98.2623,48.7376 99.5956,47.7376 101.5,47.5C 103.404,47.2624 104.738,46.2624 105.5,44.5C 108.951,41.0564 112.951,38.3897 117.5,36.5C 119.027,36.573 120.027,35.9063 120.5,34.5C 122.674,34.2503 124.341,33.2503 125.5,31.5C 126.514,30.3263 127.847,29.6596 129.5,29.5C 132.331,28.9213 134.664,27.588 136.5,25.5C 139.241,25.2927 141.574,24.2927 143.5,22.5C 145.153,22.3404 146.486,21.6737 147.5,20.5C 148.78,19.0687 150.447,18.4021 152.5,18.5C 153.873,18.6567 155.207,18.49 156.5,18C 158.758,17.124 160.758,15.9573 162.5,14.5C 163.568,13.5655 164.901,13.2322 166.5,13.5C 170.785,12.7384 174.785,11.4051 178.5,9.5C 178.833,9.5 179.167,9.5 179.5,9.5C 184.356,8.4563 189.022,7.12297 193.5,5.5C 197.3,3.85681 201.3,3.19014 205.5,3.5C 209.258,3.15199 212.924,2.48532 216.5,1.5C 216.833,1.5 217.167,1.5 217.5,1.5C 221.684,1.14909 225.684,0.482425 229.5,-0.5 Z M 297.5,20.5 C 299.838,22.0395 302.505,22.7062 305.5,22.5C 308.907,24.0743 312.573,25.0743 316.5,25.5C 320.94,27.5376 325.607,29.2042 330.5,30.5C 340.948,34.89 351.281,39.5567 361.5,44.5C 361.973,45.9063 362.973,46.573 364.5,46.5C 365.514,47.6737 366.847,48.3404 368.5,48.5C 368.973,49.9063 369.973,50.573 371.5,50.5C 371.973,51.9063 372.973,52.573 374.5,52.5C 374.842,53.3382 375.508,53.6716 376.5,53.5C 376.973,54.9063 377.973,55.573 379.5,55.5C 380.262,57.2624 381.596,58.2624 383.5,58.5C 383.973,59.9063 384.973,60.573 386.5,60.5C 386.973,61.9063 387.973,62.573 389.5,62.5C 390.585,64.5869 392.251,65.9202 394.5,66.5C 395.911,68.914 397.911,70.5806 400.5,71.5C 402.569,74.5725 405.236,76.9059 408.5,78.5C 412.833,83.5 417.5,88.1667 422.5,92.5C 422.738,94.4044 423.738,95.7377 425.5,96.5C 426.5,98.1667 427.833,99.5 429.5,100.5C 429.427,102.027 430.094,103.027 431.5,103.5C 431.833,104.5 432.5,105.167 433.5,105.5C 433.427,107.027 434.094,108.027 435.5,108.5C 435.5,109.167 435.833,109.5 436.5,109.5C 436.427,111.027 437.094,112.027 438.5,112.5C 447.272,125.709 455.272,139.376 462.5,153.5C 462.402,155.553 463.069,157.22 464.5,158.5C 465.931,163.011 467.598,167.345 469.5,171.5C 471.054,178.074 473.054,184.407 475.5,190.5C 475.232,192.099 475.566,193.432 476.5,194.5C 476.549,198.078 477.215,201.411 478.5,204.5C 478.5,204.833 478.5,205.167 478.5,205.5C 481.289,223.388 482.622,241.388 482.5,259.5C 482.5,261.167 482.5,262.833 482.5,264.5C 481.263,269.96 480.596,275.627 480.5,281.5C 480.5,281.833 480.5,282.167 480.5,282.5C 479.313,285.946 478.646,289.613 478.5,293.5C 478.5,294.167 478.5,294.833 478.5,295.5C 477.087,298.219 476.42,301.219 476.5,304.5C 474.595,308.897 473.261,313.563 472.5,318.5C 470.928,321.215 469.928,324.215 469.5,327.5C 467.98,329.89 466.98,332.557 466.5,335.5C 462.85,343.422 459.184,351.422 455.5,359.5C 453.412,361.336 452.079,363.669 451.5,366.5C 450.662,366.842 450.328,367.508 450.5,368.5C 449.094,368.973 448.427,369.973 448.5,371.5C 447.11,372.899 446.11,374.566 445.5,376.5C 444.094,376.973 443.427,377.973 443.5,379.5C 442.094,379.973 441.427,380.973 441.5,382.5C 439.738,383.262 438.738,384.596 438.5,386.5C 437.265,386.721 436.265,387.388 435.5,388.5C 434.482,387.807 433.482,387.141 432.5,386.5C 431.527,384.861 430.194,383.527 428.5,382.5C 427.92,380.251 426.587,378.585 424.5,377.5C 420.461,372.46 415.794,368.127 410.5,364.5C 410.027,363.094 409.027,362.427 407.5,362.5C 407.5,361.833 407.167,361.5 406.5,361.5C 406.027,360.094 405.027,359.427 403.5,359.5C 393.31,351.739 381.977,346.072 369.5,342.5C 366.45,340.899 363.116,339.899 359.5,339.5C 357.621,338.659 355.621,338.325 353.5,338.5C 351.316,337.734 348.982,337.067 346.5,336.5C 345.893,336.624 345.56,336.957 345.5,337.5C 341.413,336.633 337.246,335.967 333,335.5C 275.815,335.193 218.649,335.526 161.5,336.5C 155.916,336.255 150.583,336.922 145.5,338.5C 144.833,338.5 144.167,338.5 143.5,338.5C 140.572,338.565 137.905,339.232 135.5,340.5C 131.085,340.861 127.085,342.194 123.5,344.5C 121.447,344.402 119.78,345.069 118.5,346.5C 116.62,346.229 115.287,346.896 114.5,348.5C 112.447,348.402 110.78,349.069 109.5,350.5C 107.973,350.427 106.973,351.094 106.5,352.5C 104.62,352.229 103.287,352.896 102.5,354.5C 100.973,354.427 99.9731,355.094 99.5,356.5C 97.9731,356.427 96.9731,357.094 96.5,358.5C 93.1092,359.529 90.4426,361.529 88.5,364.5C 85.2358,366.094 82.5691,368.427 80.5,371.5C 77.8333,372.167 76.1667,373.833 75.5,376.5C 72.4275,378.569 70.0941,381.236 68.5,384.5C 66.8523,385.81 65.1856,387.143 63.5,388.5C 62.1482,387.476 60.8149,386.476 59.5,385.5C 59.573,383.973 58.9063,382.973 57.5,382.5C 57.573,380.973 56.9063,379.973 55.5,379.5C 55.573,377.973 54.9063,376.973 53.5,376.5C 53.573,374.973 52.9063,373.973 51.5,373.5C 51.573,371.973 50.9063,370.973 49.5,370.5C 49.6716,369.508 49.3382,368.842 48.5,368.5C 48.573,366.973 47.9063,365.973 46.5,365.5C 46.0075,363.181 45.0075,361.181 43.5,359.5C 43.3404,357.847 42.6737,356.514 41.5,355.5C 39.4032,350.311 37.0698,345.311 34.5,340.5C 34.5979,338.447 33.9313,336.78 32.5,335.5C 32.6716,334.508 32.3382,333.842 31.5,333.5C 31.405,331.214 30.7384,329.214 29.5,327.5C 28.7387,323.216 27.4053,319.216 25.5,315.5C 25.7678,313.901 25.4345,312.568 24.5,311.5C 24.2785,308.933 23.6118,306.599 22.5,304.5C 22.7845,302.585 22.4511,300.919 21.5,299.5C 20.8589,293.642 19.8589,287.975 18.5,282.5C 18.5,282.167 18.5,281.833 18.5,281.5C 18.2434,275.312 17.5767,269.312 16.5,263.5C 16.5,262.167 16.5,260.833 16.5,259.5C 16.5053,242.77 17.5053,226.103 19.5,209.5C 22.8472,194.772 26.8472,180.105 31.5,165.5C 33.685,161.787 35.3517,157.787 36.5,153.5C 37.3382,153.158 37.6716,152.492 37.5,151.5C 38.6737,150.486 39.3404,149.153 39.5,147.5C 42.0078,143.818 44.0078,139.818 45.5,135.5C 47.2503,134.341 48.2503,132.674 48.5,130.5C 49.8897,129.101 50.8897,127.434 51.5,125.5C 52.9063,125.027 53.573,124.027 53.5,122.5C 54.9063,122.027 55.573,121.027 55.5,119.5C 56.9063,119.027 57.573,118.027 57.5,116.5C 58.9063,116.027 59.573,115.027 59.5,113.5C 60.1667,113.5 60.5,113.167 60.5,112.5C 61.9063,112.027 62.573,111.027 62.5,109.5C 63.1667,109.5 63.5,109.167 63.5,108.5C 64.9063,108.027 65.573,107.027 65.5,105.5C 66.5,105.167 67.1667,104.5 67.5,103.5C 68.9063,103.027 69.573,102.027 69.5,100.5C 70.8333,99.8333 71.8333,98.8333 72.5,97.5C 74.5869,96.4154 75.9202,94.7488 76.5,92.5C 82.5,87.1667 88.1667,81.5 93.5,75.5C 95.4044,75.2624 96.7377,74.2624 97.5,72.5C 98.5,71.5 99.5,70.5 100.5,69.5C 102.027,69.573 103.027,68.9063 103.5,67.5C 104.5,67.1667 105.167,66.5 105.5,65.5C 107.027,65.573 108.027,64.9063 108.5,63.5C 108.5,62.8333 108.833,62.5 109.5,62.5C 111.027,62.573 112.027,61.9063 112.5,60.5C 114.23,59.9744 115.564,58.9744 116.5,57.5C 118.027,57.573 119.027,56.9063 119.5,55.5C 121.027,55.573 122.027,54.9063 122.5,53.5C 126.1,51.8899 129.434,49.8899 132.5,47.5C 134.027,47.573 135.027,46.9063 135.5,45.5C 186.509,18.3714 240.509,10.0381 297.5,20.5 Z"/></g>
<g><path style="opacity:0.051" fill="#3b3b3b" d="M 263.5,-0.5 C 268.167,-0.5 272.833,-0.5 277.5,-0.5C 278.167,0.166667 278.833,0.833333 279.5,1.5C 273.991,1.1251 268.658,0.458435 263.5,-0.5 Z"/></g>
<g><path style="opacity:0.259" fill="#4e4e4e" d="M 216.5,1.5 C 212.924,2.48532 209.258,3.15199 205.5,3.5C 208.356,1.92335 211.522,0.923355 215,0.5C 215.765,0.569925 216.265,0.903259 216.5,1.5 Z"/></g>
<g><path style="opacity:0.329" fill="#4f4f4f" d="M 193.5,5.5 C 189.022,7.12297 184.356,8.4563 179.5,9.5C 179.611,8.88258 179.944,8.38258 180.5,8C 184.754,6.68589 189.087,5.85256 193.5,5.5 Z"/></g>
<g><path style="opacity:0.514" fill="#646464" d="M 178.5,9.5 C 174.785,11.4051 170.785,12.7384 166.5,13.5C 170.053,11.4803 173.886,9.81367 178,8.5C 178.399,8.72845 178.565,9.06178 178.5,9.5 Z"/></g>
<g><path style="opacity:0.004" fill="#000000" d="M 388.5,12.5 C 389.833,13.1667 389.833,13.1667 388.5,12.5 Z"/></g>
<g><path style="opacity:0.027" fill="#4d4d4d" d="M 162.5,14.5 C 160.758,15.9573 158.758,17.124 156.5,18C 155.207,18.49 153.873,18.6567 152.5,18.5C 155.37,16.2057 158.703,14.8723 162.5,14.5 Z"/></g>
<g><path style="opacity:0.004" fill="#000000" d="M 360.5,17.5 C 361.833,18.1667 361.833,18.1667 360.5,17.5 Z"/></g>
<g><path style="opacity:0.361" fill="#6d6d6d" d="M 297.5,20.5 C 300.428,20.5651 303.095,21.2318 305.5,22.5C 302.505,22.7062 299.838,22.0395 297.5,20.5 Z"/></g>
<g><path style="opacity:0.165" fill="#2c2c2c" d="M 147.5,20.5 C 146.486,21.6737 145.153,22.3404 143.5,22.5C 144.287,20.8958 145.62,20.2291 147.5,20.5 Z"/></g>
<g><path style="opacity:0.02" fill="#353535" d="M 143.5,22.5 C 141.574,24.2927 139.241,25.2927 136.5,25.5C 138.426,23.7073 140.759,22.7073 143.5,22.5 Z"/></g>
<g><path style="opacity:0.478" fill="#626262" d="M 316.5,25.5 C 321.703,26.0094 326.37,27.6761 330.5,30.5C 325.607,29.2042 320.94,27.5376 316.5,25.5 Z"/></g>
<g><path style="opacity:0.004" fill="#000000" d="M 101.5,26.5 C 102.833,27.1667 102.833,27.1667 101.5,26.5 Z"/></g>
<g><path style="opacity:0.031" fill="#2b2b2b" d="M 136.5,25.5 C 134.664,27.588 132.331,28.9213 129.5,29.5C 131.336,27.412 133.669,26.0787 136.5,25.5 Z"/></g>
<g><path style="opacity:0.01" fill="#1b1b1b" d="M 125.5,31.5 C 124.341,33.2503 122.674,34.2503 120.5,34.5C 121.659,32.7497 123.326,31.7497 125.5,31.5 Z"/></g>
<g><path style="opacity:0.235" fill="#414141" d="M 120.5,34.5 C 120.027,35.9063 119.027,36.573 117.5,36.5C 117.973,35.0937 118.973,34.427 120.5,34.5 Z"/></g>
<g><path style="opacity:0.004" fill="#000000" d="M 453.5,38.5 C 454.833,39.1667 454.833,39.1667 453.5,38.5 Z"/></g>
<g><path style="opacity:0.2" fill="#4a4a4a" d="M 105.5,44.5 C 104.738,46.2624 103.404,47.2624 101.5,47.5C 102.262,45.7376 103.596,44.7376 105.5,44.5 Z"/></g>
<g><path style="opacity:0.035" fill="#252525" d="M 361.5,44.5 C 363.027,44.427 364.027,45.0937 364.5,46.5C 362.973,46.573 361.973,45.9063 361.5,44.5 Z"/></g>
<g><path style="opacity:0.004" fill="#1f1f1f" d="M 135.5,45.5 C 135.027,46.9063 134.027,47.573 132.5,47.5C 132.973,46.0937 133.973,45.427 135.5,45.5 Z"/></g>
<g><path style="opacity:0.035" fill="#2f2f2f" d="M 394.5,45.5 C 396.027,45.427 397.027,46.0937 397.5,47.5C 395.973,47.573 394.973,46.9063 394.5,45.5 Z"/></g>
<g><path style="opacity:0.067" fill="#2b2b2b" d="M 368.5,48.5 C 370.027,48.427 371.027,49.0937 371.5,50.5C 369.973,50.573 368.973,49.9063 368.5,48.5 Z"/></g>
<g><path style="opacity:0.039" fill="#1f1f1f" d="M 371.5,50.5 C 373.027,50.427 374.027,51.0937 374.5,52.5C 372.973,52.573 371.973,51.9063 371.5,50.5 Z"/></g>
<g><path style="opacity:0.58" fill="#696969" d="M 97.5,50.5 C 96.4154,52.5869 94.7488,53.9202 92.5,54.5C 93.5846,52.4131 95.2512,51.0798 97.5,50.5 Z"/></g>
<g><path style="opacity:0.004" fill="#181818" d="M 122.5,53.5 C 122.027,54.9063 121.027,55.573 119.5,55.5C 119.973,54.0937 120.973,53.427 122.5,53.5 Z"/></g>
<g><path style="opacity:0.106" fill="#3e3e3e" d="M 376.5,53.5 C 378.027,53.427 379.027,54.0937 379.5,55.5C 377.973,55.573 376.973,54.9063 376.5,53.5 Z"/></g>
<g><path style="opacity:0.012" fill="#1c1c1c" d="M 119.5,55.5 C 119.027,56.9063 118.027,57.573 116.5,57.5C 116.973,56.0937 117.973,55.427 119.5,55.5 Z"/></g>
<g><path style="opacity:0.137" fill="#3b3b3b" d="M 379.5,55.5 C 381.404,55.7376 382.738,56.7376 383.5,58.5C 381.596,58.2624 380.262,57.2624 379.5,55.5 Z"/></g>
<g><path style="opacity:0.031" fill="#313131" d="M 407.5,55.5 C 409.027,55.427 410.027,56.0937 410.5,57.5C 408.973,57.573 407.973,56.9063 407.5,55.5 Z"/></g>
<g><path style="opacity:0.004" fill="#000000" d="M 458.5,56.5 C 459.833,57.1667 459.833,57.1667 458.5,56.5 Z"/></g>
<g><path style="opacity:0.059" fill="#2c2c2c" d="M 383.5,58.5 C 385.027,58.427 386.027,59.0937 386.5,60.5C 384.973,60.573 383.973,59.9063 383.5,58.5 Z"/></g>
<g><path style="opacity:0.176" fill="#474747" d="M 86.5,59.5 C 85.7377,61.2624 84.4044,62.2624 82.5,62.5C 83.2623,60.7376 84.5956,59.7376 86.5,59.5 Z"/></g>
<g><path style="opacity:0.004" fill="#191919" d="M 112.5,60.5 C 112.027,61.9063 111.027,62.573 109.5,62.5C 109.973,61.0937 110.973,60.427 112.5,60.5 Z"/></g>
<g><path style="opacity:0.11" fill="#383838" d="M 386.5,60.5 C 388.027,60.427 389.027,61.0937 389.5,62.5C 387.973,62.573 386.973,61.9063 386.5,60.5 Z"/></g>
<g><path style="opacity:0.024" fill="#373737" d="M 414.5,61.5 C 416.027,61.427 417.027,62.0937 417.5,63.5C 415.973,63.573 414.973,62.9063 414.5,61.5 Z"/></g>
<g><path style="opacity:0.02" fill="#1c1c1c" d="M 108.5,63.5 C 108.027,64.9063 107.027,65.573 105.5,65.5C 105.973,64.0937 106.973,63.427 108.5,63.5 Z"/></g>
<g><path style="opacity:0.098" fill="#474747" d="M 389.5,62.5 C 391.749,63.0798 393.415,64.4131 394.5,66.5C 392.251,65.9202 390.585,64.5869 389.5,62.5 Z"/></g>
<g><path style="opacity:0.02" fill="#212121" d="M 103.5,67.5 C 103.027,68.9063 102.027,69.573 100.5,69.5C 100.973,68.0937 101.973,67.427 103.5,67.5 Z"/></g>
<g><path style="opacity:0.184" fill="#454545" d="M 394.5,66.5 C 397.089,67.4194 399.089,69.086 400.5,71.5C 397.911,70.5806 395.911,68.914 394.5,66.5 Z"/></g>
<g><path style="opacity:0.027" fill="#2e2e2e" d="M 97.5,72.5 C 96.7377,74.2624 95.4044,75.2624 93.5,75.5C 94.2623,73.7376 95.5956,72.7376 97.5,72.5 Z"/></g>
<g><path style="opacity:0.196" fill="#3d3d3d" d="M 400.5,71.5 C 403.764,73.0941 406.431,75.4275 408.5,78.5C 405.236,76.9059 402.569,74.5725 400.5,71.5 Z"/></g>
<g><path style="opacity:0.149" fill="#424242" d="M 64.5,81.5 C 63.5,83.1667 62.1667,84.5 60.5,85.5C 60.8333,83.1667 62.1667,81.8333 64.5,81.5 Z"/></g>
<g><path style="opacity:0.137" fill="#444444" d="M 58.5,88.5 C 57.5,90.1667 56.1667,91.5 54.5,92.5C 54.8333,90.1667 56.1667,88.8333 58.5,88.5 Z"/></g>
<g><path style="opacity:0.999" fill="#fcfcfc" d="M 267.5,91.5 C 269.607,92.4682 271.941,92.8016 274.5,92.5C 275.609,92.5569 276.609,92.8902 277.5,93.5C 279.905,94.7682 282.572,95.4349 285.5,95.5C 292.975,97.5421 299.975,100.542 306.5,104.5C 306.973,105.906 307.973,106.573 309.5,106.5C 309.973,107.906 310.973,108.573 312.5,108.5C 314.027,108.427 315.027,109.094 315.5,110.5C 315.973,111.906 316.973,112.573 318.5,112.5C 319.167,112.5 319.5,112.833 319.5,113.5C 319.973,114.906 320.973,115.573 322.5,115.5C 323.5,115.833 324.167,116.5 324.5,117.5C 324.973,118.906 325.973,119.573 327.5,119.5C 329.833,121.167 331.833,123.167 333.5,125.5C 334.419,128.089 336.086,130.089 338.5,131.5C 339.5,131.833 340.167,132.5 340.5,133.5C 340.738,135.404 341.738,136.738 343.5,137.5C 343.427,139.027 344.094,140.027 345.5,140.5C 345.427,142.027 346.094,143.027 347.5,143.5C 347.427,145.027 348.094,146.027 349.5,146.5C 350.338,146.842 350.672,147.508 350.5,148.5C 350.427,150.027 351.094,151.027 352.5,151.5C 355.596,156.437 357.929,161.77 359.5,167.5C 359.054,170.01 359.72,172.01 361.5,173.5C 361.5,173.833 361.5,174.167 361.5,174.5C 361.898,178.761 362.898,182.761 364.5,186.5C 367.93,205.867 366.596,224.867 360.5,243.5C 359.069,244.78 358.402,246.447 358.5,248.5C 354.906,259.689 349.24,269.689 341.5,278.5C 340.094,278.973 339.427,279.973 339.5,281.5C 338.167,283.5 336.5,285.167 334.5,286.5C 332.5,287.833 330.833,289.5 329.5,291.5C 327.12,294.881 324.12,297.547 320.5,299.5C 318.973,299.427 317.973,300.094 317.5,301.5C 317.5,302.167 317.167,302.5 316.5,302.5C 314.973,302.427 313.973,303.094 313.5,304.5C 312.101,305.89 310.434,306.89 308.5,307.5C 306.973,307.427 305.973,308.094 305.5,309.5C 283.405,321.484 259.739,325.984 234.5,323C 229.242,322.386 224.242,321.219 219.5,319.5C 217.485,318.076 215.152,317.41 212.5,317.5C 203.742,315.364 195.742,311.698 188.5,306.5C 188.027,305.094 187.027,304.427 185.5,304.5C 185.027,303.094 184.027,302.427 182.5,302.5C 180.596,302.262 179.262,301.262 178.5,299.5C 177.415,297.413 175.749,296.08 173.5,295.5C 169.5,290.833 165.167,286.5 160.5,282.5C 159.5,282.167 158.833,281.5 158.5,280.5C 158.169,277.169 156.503,274.836 153.5,273.5C 153.573,271.973 152.906,270.973 151.5,270.5C 151.573,268.973 150.906,267.973 149.5,267.5C 146.742,264.322 144.742,260.655 143.5,256.5C 143.598,254.447 142.931,252.78 141.5,251.5C 136.818,241.103 134.151,230.103 133.5,218.5C 133.407,207.15 133.741,195.817 134.5,184.5C 134.5,183.833 134.5,183.167 134.5,182.5C 137.27,176.518 139.27,170.184 140.5,163.5C 142.043,161.604 143.709,159.771 145.5,158C 144.663,156.989 144.33,155.822 144.5,154.5C 144.66,152.847 145.326,151.514 146.5,150.5C 148.95,148.371 150.617,145.704 151.5,142.5C 153.9,140.704 155.567,138.37 156.5,135.5C 159.243,133.761 161.243,131.427 162.5,128.5C 164.521,125.145 167.188,122.479 170.5,120.5C 173.089,119.581 175.089,117.914 176.5,115.5C 177.262,113.738 178.596,112.738 180.5,112.5C 182.404,112.262 183.738,111.262 184.5,109.5C 186.027,109.573 187.027,108.906 187.5,107.5C 189.674,107.25 191.341,106.25 192.5,104.5C 194.153,104.34 195.486,103.674 196.5,102.5C 198.153,102.34 199.486,101.674 200.5,100.5C 203.491,100.834 205.824,99.8337 207.5,97.5C 209.553,97.5979 211.22,96.9313 212.5,95.5C 216.57,95.5682 220.237,94.5682 223.5,92.5C 226.059,92.8016 228.393,92.4682 230.5,91.5C 242.836,88.8869 255.169,88.8869 267.5,91.5 Z"/></g>
<g><path style="opacity:0.467" fill="#5a5a5a" d="M 230.5,91.5 C 228.393,92.4682 226.059,92.8016 223.5,92.5C 225.343,91.7171 227.343,91.0505 229.5,90.5C 230.107,90.6236 230.44,90.9569 230.5,91.5 Z"/></g>
<g><path style="opacity:0.541" fill="#696969" d="M 274.5,92.5 C 271.941,92.8016 269.607,92.4682 267.5,91.5C 267.435,91.0618 267.601,90.7284 268,90.5C 270.277,91.1172 272.444,91.7839 274.5,92.5 Z"/></g>
<g><path style="opacity:0.039" fill="#343434" d="M 285.5,95.5 C 282.572,95.4349 279.905,94.7682 277.5,93.5C 277.435,93.0618 277.601,92.7284 278,92.5C 280.672,93.282 283.172,94.282 285.5,95.5 Z"/></g>
<g><path style="opacity:0.004" fill="#222222" d="M 422.5,92.5 C 424.262,93.2623 425.262,94.5956 425.5,96.5C 423.738,95.7377 422.738,94.4044 422.5,92.5 Z"/></g>
<g><path style="opacity:0.38" fill="#434343" d="M 223.5,92.5 C 220.237,94.5682 216.57,95.5682 212.5,95.5C 215.907,93.9257 219.573,92.9257 223.5,92.5 Z"/></g>
<g><path style="opacity:0.204" fill="#484848" d="M 444.5,92.5 C 446.262,93.2623 447.262,94.5956 447.5,96.5C 445.738,95.7377 444.738,94.4044 444.5,92.5 Z"/></g>
<g><path style="opacity:0.039" fill="#2c2c2c" d="M 76.5,92.5 C 75.9202,94.7488 74.5869,96.4154 72.5,97.5C 73.0798,95.2512 74.4131,93.5846 76.5,92.5 Z"/></g>
<g><path style="opacity:0.035" fill="#313131" d="M 54.5,92.5 C 53.9202,94.7488 52.5869,96.4154 50.5,97.5C 51.0798,95.2512 52.4131,93.5846 54.5,92.5 Z"/></g>
<g><path style="opacity:0.071" fill="#2b2b2b" d="M 212.5,95.5 C 211.22,96.9313 209.553,97.5979 207.5,97.5C 208.78,96.0687 210.447,95.4021 212.5,95.5 Z"/></g>
<g><path style="opacity:0.749" fill="#787878" d="M 207.5,97.5 C 205.824,99.8337 203.491,100.834 200.5,100.5C 202.426,98.7073 204.759,97.7073 207.5,97.5 Z"/></g>
<g><path style="opacity:0.004" fill="#000000" d="M 23.5,100.5 C 24.8333,101.167 24.8333,101.167 23.5,100.5 Z"/></g>
<g><path style="opacity:0.188" fill="#343434" d="M 200.5,100.5 C 199.486,101.674 198.153,102.34 196.5,102.5C 197.287,100.896 198.62,100.229 200.5,100.5 Z"/></g>
<g><path style="opacity:0.012" fill="#232323" d="M 429.5,100.5 C 430.906,100.973 431.573,101.973 431.5,103.5C 430.094,103.027 429.427,102.027 429.5,100.5 Z"/></g>
<g><path style="opacity:0.035" fill="#272727" d="M 69.5,100.5 C 69.573,102.027 68.9063,103.027 67.5,103.5C 67.427,101.973 68.0937,100.973 69.5,100.5 Z"/></g>
<g><path style="opacity:0.165" fill="#323232" d="M 196.5,102.5 C 195.486,103.674 194.153,104.34 192.5,104.5C 193.287,102.896 194.62,102.229 196.5,102.5 Z"/></g>
<g><path style="opacity:0.035" fill="#383838" d="M 48.5,100.5 C 47.9202,102.749 46.5869,104.415 44.5,105.5C 45.0798,103.251 46.4131,101.585 48.5,100.5 Z"/></g>
<g><path style="opacity:0.063" fill="#222222" d="M 192.5,104.5 C 191.341,106.25 189.674,107.25 187.5,107.5C 188.659,105.75 190.326,104.75 192.5,104.5 Z"/></g>
<g><path style="opacity:0.055" fill="#212121" d="M 306.5,104.5 C 308.027,104.427 309.027,105.094 309.5,106.5C 307.973,106.573 306.973,105.906 306.5,104.5 Z"/></g>
<g><path style="opacity:0.008" fill="#262626" d="M 433.5,105.5 C 434.906,105.973 435.573,106.973 435.5,108.5C 434.094,108.027 433.427,107.027 433.5,105.5 Z"/></g>
<g><path style="opacity:0.141" fill="#474747" d="M 453.5,104.5 C 454.906,104.973 455.573,105.973 455.5,107.5C 454.094,107.027 453.427,106.027 453.5,104.5 Z"/></g>
<g><path style="opacity:0.059" fill="#262626" d="M 44.5,105.5 C 44.573,107.027 43.9063,108.027 42.5,108.5C 42.427,106.973 43.0937,105.973 44.5,105.5 Z"/></g>
<g><path style="opacity:0.031" fill="#2b2b2b" d="M 65.5,105.5 C 65.573,107.027 64.9063,108.027 63.5,108.5C 63.427,106.973 64.0937,105.973 65.5,105.5 Z"/></g>
<g><path style="opacity:0.075" fill="#2d2d2d" d="M 309.5,106.5 C 311.027,106.427 312.027,107.094 312.5,108.5C 310.973,108.573 309.973,107.906 309.5,106.5 Z"/></g>
<g><path style="opacity:0.212" fill="#353535" d="M 187.5,107.5 C 187.027,108.906 186.027,109.573 184.5,109.5C 184.973,108.094 185.973,107.427 187.5,107.5 Z"/></g>
<g><path style="opacity:0.086" fill="#3c3c3c" d="M 42.5,108.5 C 42.573,110.027 41.9063,111.027 40.5,111.5C 40.427,109.973 41.0937,108.973 42.5,108.5 Z"/></g>
<g><path style="opacity:0.212" fill="#484848" d="M 184.5,109.5 C 183.738,111.262 182.404,112.262 180.5,112.5C 181.262,110.738 182.596,109.738 184.5,109.5 Z"/></g>
<g><path style="opacity:0.027" fill="#262626" d="M 62.5,109.5 C 62.573,111.027 61.9063,112.027 60.5,112.5C 60.427,110.973 61.0937,109.973 62.5,109.5 Z"/></g>
<g><path style="opacity:0.063" fill="#313131" d="M 315.5,110.5 C 317.027,110.427 318.027,111.094 318.5,112.5C 316.973,112.573 315.973,111.906 315.5,110.5 Z"/></g>
<g><path style="opacity:0.027" fill="#2a2a2a" d="M 436.5,109.5 C 437.906,109.973 438.573,110.973 438.5,112.5C 437.094,112.027 436.427,111.027 436.5,109.5 Z"/></g>
<g><path style="opacity:0.071" fill="#363636" d="M 40.5,111.5 C 40.573,113.027 39.9063,114.027 38.5,114.5C 38.427,112.973 39.0937,111.973 40.5,111.5 Z"/></g>
<g><path style="opacity:0.027" fill="#2d2d2d" d="M 319.5,113.5 C 321.027,113.427 322.027,114.094 322.5,115.5C 320.973,115.573 319.973,114.906 319.5,113.5 Z"/></g>
<g><path style="opacity:0.027" fill="#333333" d="M 59.5,113.5 C 59.573,115.027 58.9063,116.027 57.5,116.5C 57.427,114.973 58.0937,113.973 59.5,113.5 Z"/></g>
<g><path style="opacity:0.051" fill="#292929" d="M 38.5,114.5 C 38.573,116.027 37.9063,117.027 36.5,117.5C 36.427,115.973 37.0937,114.973 38.5,114.5 Z"/></g>
<g><path style="opacity:0.02" fill="#292929" d="M 324.5,117.5 C 326.027,117.427 327.027,118.094 327.5,119.5C 325.973,119.573 324.973,118.906 324.5,117.5 Z"/></g>
<g><path style="opacity:0.043" fill="#272727" d="M 57.5,116.5 C 57.573,118.027 56.9063,119.027 55.5,119.5C 55.427,117.973 56.0937,116.973 57.5,116.5 Z"/></g>
<g><path style="opacity:0.11" fill="#404040" d="M 461.5,116.5 C 462.906,116.973 463.573,117.973 463.5,119.5C 462.094,119.027 461.427,118.027 461.5,116.5 Z"/></g>
<g><path style="opacity:0.027" fill="#272727" d="M 36.5,117.5 C 36.573,119.027 35.9063,120.027 34.5,120.5C 34.427,118.973 35.0937,117.973 36.5,117.5 Z"/></g>
<g><path style="opacity:0.588" fill="#636363" d="M 176.5,115.5 C 175.089,117.914 173.089,119.581 170.5,120.5C 171.911,118.086 173.911,116.419 176.5,115.5 Z"/></g>
<g><path style="opacity:0.039" fill="#262626" d="M 55.5,119.5 C 55.573,121.027 54.9063,122.027 53.5,122.5C 53.427,120.973 54.0937,119.973 55.5,119.5 Z"/></g>
<g><path style="opacity:0.102" fill="#454545" d="M 464.5,121.5 C 465.906,121.973 466.573,122.973 466.5,124.5C 465.094,124.027 464.427,123.027 464.5,121.5 Z"/></g>
<g><path style="opacity:0.031" fill="#2d2d2d" d="M 53.5,122.5 C 53.573,124.027 52.9063,125.027 51.5,125.5C 51.427,123.973 52.0937,122.973 53.5,122.5 Z"/></g>
<g><path style="opacity:0.035" fill="#2f2f2f" d="M 32.5,124.5 C 32.573,126.027 31.9063,127.027 30.5,127.5C 30.427,125.973 31.0937,124.973 32.5,124.5 Z"/></g>
<g><path style="opacity:0.392" fill="#515151" d="M 333.5,125.5 C 335.914,126.911 337.581,128.911 338.5,131.5C 336.086,130.089 334.419,128.089 333.5,125.5 Z"/></g>
<g><path style="opacity:0.91" fill="#7b7b7b" d="M 30.5,127.5 C 30.7593,129.989 29.7593,131.656 27.5,132.5C 28.1103,130.566 29.1103,128.899 30.5,127.5 Z"/></g>
<g><path style="opacity:0.094" fill="#444444" d="M 468.5,128.5 C 469.906,128.973 470.573,129.973 470.5,131.5C 469.094,131.027 468.427,130.027 468.5,128.5 Z"/></g>
<g><path style="opacity:0.027" fill="#2e2e2e" d="M 48.5,130.5 C 48.2503,132.674 47.2503,134.341 45.5,135.5C 45.7497,133.326 46.7497,131.659 48.5,130.5 Z"/></g>
<g><path style="opacity:0.122" fill="#373737" d="M 162.5,128.5 C 161.243,131.427 159.243,133.761 156.5,135.5C 157.757,132.573 159.757,130.239 162.5,128.5 Z"/></g>
<g><path style="opacity:0.184" fill="#2c2c2c" d="M 27.5,132.5 C 27.7373,133.791 27.404,134.791 26.5,135.5C 26.0618,135.565 25.7284,135.399 25.5,135C 26.0659,134.005 26.7326,133.172 27.5,132.5 Z"/></g>
<g><path style="opacity:0.196" fill="#4c4c4c" d="M 340.5,133.5 C 342.262,134.262 343.262,135.596 343.5,137.5C 341.738,136.738 340.738,135.404 340.5,133.5 Z"/></g>
<g><path style="opacity:0.004" fill="#000000" d="M 477.5,136.5 C 478.833,137.167 478.833,137.167 477.5,136.5 Z"/></g>
<g><path style="opacity:0.133" fill="#343434" d="M 156.5,135.5 C 155.567,138.37 153.9,140.704 151.5,142.5C 152.433,139.63 154.1,137.296 156.5,135.5 Z"/></g>
<g><path style="opacity:0.18" fill="#494949" d="M 343.5,137.5 C 344.906,137.973 345.573,138.973 345.5,140.5C 344.094,140.027 343.427,139.027 343.5,137.5 Z"/></g>
<g><path style="opacity:0.02" fill="#262626" d="M 25.5,136.5 C 24.9579,139.912 23.6246,142.912 21.5,145.5C 22.0421,142.088 23.3754,139.088 25.5,136.5 Z"/></g>
<g><path style="opacity:0.137" fill="#494949" d="M 345.5,140.5 C 346.906,140.973 347.573,141.973 347.5,143.5C 346.094,143.027 345.427,142.027 345.5,140.5 Z"/></g>
<g><path style="opacity:0.133" fill="#454545" d="M 347.5,143.5 C 348.906,143.973 349.573,144.973 349.5,146.5C 348.094,146.027 347.427,145.027 347.5,143.5 Z"/></g>
<g><path style="opacity:0.031" fill="#252525" d="M 151.5,142.5 C 150.617,145.704 148.95,148.371 146.5,150.5C 147.383,147.296 149.05,144.629 151.5,142.5 Z"/></g>
<g><path style="opacity:0.075" fill="#323232" d="M 39.5,147.5 C 39.3404,149.153 38.6737,150.486 37.5,151.5C 37.2291,149.62 37.8958,148.287 39.5,147.5 Z"/></g>
<g><path style="opacity:0.051" fill="#333333" d="M 350.5,148.5 C 351.906,148.973 352.573,149.973 352.5,151.5C 351.094,151.027 350.427,150.027 350.5,148.5 Z"/></g>
<g><path style="opacity:0.018" fill="#1d1d1d" d="M 19.5,149.5 C 19.5979,151.553 18.9313,153.22 17.5,154.5C 17.4021,152.447 18.0687,150.78 19.5,149.5 Z"/></g>
<g><path style="opacity:0.043" fill="#2d2d2d" d="M 462.5,153.5 C 463.931,154.78 464.598,156.447 464.5,158.5C 463.069,157.22 462.402,155.553 462.5,153.5 Z"/></g>
<g><path style="opacity:0.031" fill="#2d2d2d" d="M 36.5,153.5 C 35.3517,157.787 33.685,161.787 31.5,165.5C 32.0966,160.983 33.7633,156.983 36.5,153.5 Z"/></g>
<g><path style="opacity:0.882" fill="#797979" d="M 144.5,154.5 C 144.33,155.822 144.663,156.989 145.5,158C 143.709,159.771 142.043,161.604 140.5,163.5C 141.042,160.088 142.375,157.088 144.5,154.5 Z"/></g>
<g><path style="opacity:0.69" fill="#606060" d="M 17.5,154.5 C 17.3969,157.636 16.3969,160.302 14.5,162.5C 14.7329,159.458 15.7329,156.792 17.5,154.5 Z"/></g>
<g><path style="opacity:0.11" fill="#2c2c2c" d="M 31.5,165.5 C 26.8472,180.105 22.8472,194.772 19.5,209.5C 21.2926,194.138 25.2926,179.471 31.5,165.5 Z"/></g>
<g><path style="opacity:0.718" fill="#767676" d="M 359.5,167.5 C 360.738,169.214 361.405,171.214 361.5,173.5C 359.72,172.01 359.054,170.01 359.5,167.5 Z"/></g>
<g><path style="opacity:0.459" fill="#444444" d="M 140.5,163.5 C 139.27,170.184 137.27,176.518 134.5,182.5C 135.436,175.733 137.436,169.4 140.5,163.5 Z"/></g>
<g><path style="opacity:0.757" fill="#6d6d6d" d="M 486.5,168.5 C 487.738,170.214 488.405,172.214 488.5,174.5C 486.72,173.01 486.054,171.01 486.5,168.5 Z"/></g>
<g><path style="opacity:0.161" fill="#363636" d="M 469.5,171.5 C 472.564,177.4 474.564,183.733 475.5,190.5C 473.054,184.407 471.054,178.074 469.5,171.5 Z"/></g>
<g><path style="opacity:0.431" fill="#5e5e5e" d="M 12.5,168.5 C 12.1394,172.915 10.8061,176.915 8.5,180.5C 8.8606,176.085 10.1939,172.085 12.5,168.5 Z"/></g>
<g><path style="opacity:0.357" fill="#505050" d="M 361.5,174.5 C 363.416,178.163 364.416,182.163 364.5,186.5C 362.898,182.761 361.898,178.761 361.5,174.5 Z"/></g>
<g><path style="opacity:0.565" fill="#5b5b5b" d="M 488.5,174.5 C 489.87,177.619 490.87,180.952 491.5,184.5C 489.32,181.619 488.32,178.286 488.5,174.5 Z"/></g>
<g><path style="opacity:0.298" fill="#5a5a5a" d="M 8.5,181.5 C 8.43487,184.428 7.7682,187.095 6.5,189.5C 6.06178,189.565 5.72845,189.399 5.5,189C 6.28202,186.328 7.28202,183.828 8.5,181.5 Z"/></g>
<g><path style="opacity:0.22" fill="#6c6c6c" d="M 6.5,190.5 C 6.59047,193.152 5.92381,195.485 4.5,197.5C 4.17057,194.772 4.83724,192.438 6.5,190.5 Z"/></g>
<g><path style="opacity:0.063" fill="#252525" d="M 476.5,194.5 C 478.011,197.544 478.678,200.878 478.5,204.5C 477.215,201.411 476.549,198.078 476.5,194.5 Z"/></g>
<g><path style="opacity:0.204" fill="#6e6e6e" d="M 493.5,195.5 C 495.04,197.838 495.706,200.505 495.5,203.5C 494.232,201.095 493.565,198.428 493.5,195.5 Z"/></g>
<g><path style="opacity:0.157" fill="#686868" d="M 134.5,184.5 C 133.741,195.817 133.407,207.15 133.5,218.5C 132.834,214.012 132.501,209.346 132.5,204.5C 132.308,197.596 132.975,190.93 134.5,184.5 Z"/></g>
<g><path style="opacity:0.073" fill="#232323" d="M 19.5,209.5 C 17.5053,226.103 16.5053,242.77 16.5,259.5C 15.3427,250.676 15.176,241.676 16,232.5C 16.2993,224.563 17.4659,216.896 19.5,209.5 Z"/></g>
<g><path style="opacity:0.114" fill="#2f2f2f" d="M 478.5,205.5 C 479.963,208.203 480.796,211.203 481,214.5C 483.256,229.612 483.756,244.612 482.5,259.5C 482.622,241.388 481.289,223.388 478.5,205.5 Z"/></g>
<g><path style="opacity:0.125" fill="#666666" d="M 497.5,219.5 C 498.167,221.833 498.833,224.167 499.5,226.5C 499.5,229.833 499.5,233.167 499.5,236.5C 498.263,231.04 497.596,225.373 497.5,219.5 Z"/></g>
<g><path style="opacity:0.106" fill="#3a3a3a" d="M 360.5,243.5 C 360.598,245.553 359.931,247.22 358.5,248.5C 358.402,246.447 359.069,244.78 360.5,243.5 Z"/></g>
<g><path style="opacity:0.067" fill="#303030" d="M 141.5,251.5 C 142.931,252.78 143.598,254.447 143.5,256.5C 142.069,255.22 141.402,253.553 141.5,251.5 Z"/></g>
<g><path style="opacity:0.047" fill="#262626" d="M 16.5,263.5 C 17.5767,269.312 18.2434,275.312 18.5,281.5C 17.71,280.391 17.21,279.058 17,277.5C 16.5008,272.845 16.3342,268.179 16.5,263.5 Z"/></g>
<g><path style="opacity:0.051" fill="#262626" d="M 149.5,267.5 C 150.906,267.973 151.573,268.973 151.5,270.5C 150.094,270.027 149.427,269.027 149.5,267.5 Z"/></g>
<g><path style="opacity:0.027" fill="#3a3a3a" d="M 151.5,270.5 C 152.906,270.973 153.573,271.973 153.5,273.5C 152.094,273.027 151.427,272.027 151.5,270.5 Z"/></g>
<g><path style="opacity:0.786" fill="#6e6e6e" d="M 153.5,273.5 C 156.503,274.836 158.169,277.169 158.5,280.5C 156.453,278.45 154.786,276.117 153.5,273.5 Z"/></g>
<g><path style="opacity:0.069" fill="#272727" d="M 482.5,264.5 C 482.784,270.417 482.117,276.084 480.5,281.5C 480.596,275.627 481.263,269.96 482.5,264.5 Z"/></g>
<g><path style="opacity:0.035" fill="#2a2828" d="M 341.5,278.5 C 341.573,280.027 340.906,281.027 339.5,281.5C 339.427,279.973 340.094,278.973 341.5,278.5 Z"/></g>
<g><path style="opacity:0.004" fill="#343434" d="M 160.5,282.5 C 165.167,286.5 169.5,290.833 173.5,295.5C 168.167,292.167 163.833,287.833 160.5,282.5 Z"/></g>
<g><path style="opacity:0.004" fill="#1c1c1c" d="M 334.5,286.5 C 333.833,289.167 332.167,290.833 329.5,291.5C 330.833,289.5 332.5,287.833 334.5,286.5 Z"/></g>
<g><path style="opacity:0.094" fill="#1a1a1a" d="M 480.5,282.5 C 480.749,286.458 480.082,290.124 478.5,293.5C 478.646,289.613 479.313,285.946 480.5,282.5 Z"/></g>
<g><path style="opacity:0.031" fill="#3d3d3d" d="M 18.5,282.5 C 19.8589,287.975 20.8589,293.642 21.5,299.5C 18.9967,294.227 17.9967,288.561 18.5,282.5 Z"/></g>
<g><path style="opacity:0.106" fill="#484848" d="M 173.5,295.5 C 175.749,296.08 177.415,297.413 178.5,299.5C 176.251,298.92 174.585,297.587 173.5,295.5 Z"/></g>
<g><path style="opacity:0.337" fill="#4f4f4f" d="M 478.5,295.5 C 478.58,298.781 477.913,301.781 476.5,304.5C 476.42,301.219 477.087,298.219 478.5,295.5 Z"/></g>
<g><path style="opacity:0.024" fill="#373737" d="M 320.5,299.5 C 320.027,300.906 319.027,301.573 317.5,301.5C 317.973,300.094 318.973,299.427 320.5,299.5 Z"/></g>
<g><path style="opacity:0.125" fill="#3d3d3d" d="M 182.5,302.5 C 184.027,302.427 185.027,303.094 185.5,304.5C 183.973,304.573 182.973,303.906 182.5,302.5 Z"/></g>
<g><path style="opacity:0.004" fill="#1e1e1e" d="M 316.5,302.5 C 316.027,303.906 315.027,304.573 313.5,304.5C 313.973,303.094 314.973,302.427 316.5,302.5 Z"/></g>
<g><path style="opacity:0.086" fill="#393939" d="M 185.5,304.5 C 187.027,304.427 188.027,305.094 188.5,306.5C 186.973,306.573 185.973,305.906 185.5,304.5 Z"/></g>
<g><path style="opacity:0.145" fill="#585858" d="M 4.5,300.5 C 5.53101,302.961 6.19767,305.627 6.5,308.5C 5.07017,306.256 4.07017,303.756 3.5,301C 3.72845,300.601 4.06178,300.435 4.5,300.5 Z"/></g>
<g><path style="opacity:0.318" fill="#4b4b4b" d="M 22.5,304.5 C 23.6118,306.599 24.2785,308.933 24.5,311.5C 22.8372,309.562 22.1706,307.228 22.5,304.5 Z"/></g>
<g><path style="opacity:0.004" fill="#181818" d="M 308.5,307.5 C 308.027,308.906 307.027,309.573 305.5,309.5C 305.973,308.094 306.973,307.427 308.5,307.5 Z"/></g>
<g><path style="opacity:0.537" fill="#565656" d="M 476.5,304.5 C 476.145,309.55 474.812,314.217 472.5,318.5C 473.261,313.563 474.595,308.897 476.5,304.5 Z"/></g>
<g><path style="opacity:0.204" fill="#393939" d="M 6.5,309.5 C 8.45607,315.313 10.1227,321.313 11.5,327.5C 9.05781,322.108 7.05781,316.441 5.5,310.5C 5.62358,309.893 5.95691,309.56 6.5,309.5 Z"/></g>
<g><path style="opacity:0.471" fill="#7b7b7b" d="M 212.5,317.5 C 215.152,317.41 217.485,318.076 219.5,319.5C 216.848,319.59 214.515,318.924 212.5,317.5 Z"/></g>
<g><path style="opacity:0.62" fill="#4e4e4e" d="M 25.5,315.5 C 27.4053,319.216 28.7387,323.216 29.5,327.5C 26.7925,324.044 25.4591,320.044 25.5,315.5 Z"/></g>
<g><path style="opacity:0.722" fill="#686868" d="M 472.5,318.5 C 472.862,322.081 471.862,325.081 469.5,327.5C 469.928,324.215 470.928,321.215 472.5,318.5 Z"/></g>
<g><path style="opacity:0.012" fill="#272727" d="M 11.5,327.5 C 13.4053,331.216 14.7387,335.216 15.5,339.5C 13.1939,335.915 11.8606,331.915 11.5,327.5 Z"/></g>
<g><path style="opacity:0.761" fill="#676767" d="M 29.5,327.5 C 30.7384,329.214 31.405,331.214 31.5,333.5C 29.7202,332.01 29.0535,330.01 29.5,327.5 Z"/></g>
<g><path style="opacity:0.071" fill="#393939" d="M 469.5,327.5 C 469.585,330.649 468.585,333.316 466.5,335.5C 466.98,332.557 467.98,329.89 469.5,327.5 Z"/></g>
<g><path style="opacity:0.522" fill="#767676" d="M 161.5,336.5 C 156.384,337.806 151.051,338.473 145.5,338.5C 150.583,336.922 155.916,336.255 161.5,336.5 Z"/></g>
<g><path style="opacity:0.337" fill="#5a5a5a" d="M 353.5,338.5 C 350.615,338.806 347.948,338.473 345.5,337.5C 345.56,336.957 345.893,336.624 346.5,336.5C 348.982,337.067 351.316,337.734 353.5,338.5 Z"/></g>
<g><path style="opacity:0.051" fill="#1a1a1a" d="M 32.5,335.5 C 33.9313,336.78 34.5979,338.447 34.5,340.5C 33.0687,339.22 32.4021,337.553 32.5,335.5 Z"/></g>
<g><path style="opacity:0.224" fill="#3c3c3c" d="M 143.5,338.5 C 141.162,340.04 138.495,340.706 135.5,340.5C 137.905,339.232 140.572,338.565 143.5,338.5 Z"/></g>
<g><path style="opacity:0.212" fill="#444444" d="M 359.5,339.5 C 363.116,339.899 366.45,340.899 369.5,342.5C 365.786,342.41 362.452,341.41 359.5,339.5 Z"/></g>
<g><path style="opacity:0.059" fill="#2a2a2a" d="M 15.5,339.5 C 16.9313,340.78 17.5979,342.447 17.5,344.5C 16.0687,343.22 15.4021,341.553 15.5,339.5 Z"/></g>
<g><path style="opacity:0.447" fill="#575757" d="M 135.5,340.5 C 131.915,342.806 127.915,344.139 123.5,344.5C 127.085,342.194 131.085,340.861 135.5,340.5 Z"/></g>
<g><path style="opacity:0.01" fill="#272727" d="M 17.5,344.5 C 19.2927,346.426 20.2927,348.759 20.5,351.5C 18.7073,349.574 17.7073,347.241 17.5,344.5 Z"/></g>
<g><path style="opacity:0.157" fill="#2d2d2d" d="M 118.5,346.5 C 117.486,347.674 116.153,348.34 114.5,348.5C 115.287,346.896 116.62,346.229 118.5,346.5 Z"/></g>
<g><path style="opacity:0.063" fill="#272727" d="M 114.5,348.5 C 113.22,349.931 111.553,350.598 109.5,350.5C 110.78,349.069 112.447,348.402 114.5,348.5 Z"/></g>
<g><path style="opacity:0.208" fill="#333333" d="M 109.5,350.5 C 109.027,351.906 108.027,352.573 106.5,352.5C 106.973,351.094 107.973,350.427 109.5,350.5 Z"/></g>
<g><path style="opacity:0.118" fill="#212121" d="M 106.5,352.5 C 105.486,353.674 104.153,354.34 102.5,354.5C 103.287,352.896 104.62,352.229 106.5,352.5 Z"/></g>
<g><path style="opacity:0.157" fill="#252525" d="M 102.5,354.5 C 102.027,355.906 101.027,356.573 99.5,356.5C 99.9731,355.094 100.973,354.427 102.5,354.5 Z"/></g>
<g><path style="opacity:0.039" fill="#282828" d="M 21.5,353.5 C 24.0716,357.639 26.4049,361.973 28.5,366.5C 24.9084,362.993 22.5751,358.659 21.5,353.5 Z"/></g>
<g><path style="opacity:0.169" fill="#2d2d2d" d="M 99.5,356.5 C 99.0269,357.906 98.0269,358.573 96.5,358.5C 96.9731,357.094 97.9731,356.427 99.5,356.5 Z"/></g>
<g><path style="opacity:0.043" fill="#1e1e1e" d="M 41.5,355.5 C 42.6737,356.514 43.3404,357.847 43.5,359.5C 41.8958,358.713 41.2291,357.38 41.5,355.5 Z"/></g>
<g><path style="opacity:0.043" fill="#272727" d="M 403.5,359.5 C 405.027,359.427 406.027,360.094 406.5,361.5C 404.973,361.573 403.973,360.906 403.5,359.5 Z"/></g>
<g><path style="opacity:0.122" fill="#353535" d="M 96.5,358.5 C 94.1997,360.984 91.5331,362.984 88.5,364.5C 90.4426,361.529 93.1092,359.529 96.5,358.5 Z"/></g>
<g><path style="opacity:0.035" fill="#2e2e2e" d="M 407.5,362.5 C 409.027,362.427 410.027,363.094 410.5,364.5C 408.973,364.573 407.973,363.906 407.5,362.5 Z"/></g>
<g><path style="opacity:0.82" fill="#676767" d="M 455.5,359.5 C 454.892,362.406 453.559,364.74 451.5,366.5C 452.079,363.669 453.412,361.336 455.5,359.5 Z"/></g>
<g><path style="opacity:0.082" fill="#2c2c2c" d="M 46.5,365.5 C 47.9063,365.973 48.573,366.973 48.5,368.5C 47.0937,368.027 46.427,367.027 46.5,365.5 Z"/></g>
<g><path style="opacity:0.349" fill="#6b6b6b" d="M 88.5,364.5 C 86.4309,367.573 83.7642,369.906 80.5,371.5C 82.5691,368.427 85.2358,366.094 88.5,364.5 Z"/></g>
<g><path style="opacity:0.086" fill="#333333" d="M 450.5,368.5 C 450.573,370.027 449.906,371.027 448.5,371.5C 448.427,369.973 449.094,368.973 450.5,368.5 Z"/></g>
<g><path style="opacity:0.086" fill="#3b3b3b" d="M 49.5,370.5 C 50.9063,370.973 51.573,371.973 51.5,373.5C 50.0937,373.027 49.427,372.027 49.5,370.5 Z"/></g>
<g><path style="opacity:0.016" fill="#3e3e3e" d="M 30.5,371.5 C 31.9063,371.973 32.573,372.973 32.5,374.5C 31.0937,374.027 30.427,373.027 30.5,371.5 Z"/></g>
<g><path style="opacity:0.129" fill="#343434" d="M 80.5,371.5 C 79.1667,373.5 77.5,375.167 75.5,376.5C 76.1667,373.833 77.8333,372.167 80.5,371.5 Z"/></g>
<g><path style="opacity:0.094" fill="#2a2a2a" d="M 51.5,373.5 C 52.9063,373.973 53.573,374.973 53.5,376.5C 52.0937,376.027 51.427,375.027 51.5,373.5 Z"/></g>
<g><path style="opacity:0.055" fill="#292929" d="M 53.5,376.5 C 54.9063,376.973 55.573,377.973 55.5,379.5C 54.0937,379.027 53.427,378.027 53.5,376.5 Z"/></g>
<g><path style="opacity:0.451" fill="#5c5c5c" d="M 424.5,377.5 C 426.587,378.585 427.92,380.251 428.5,382.5C 426.413,381.415 425.08,379.749 424.5,377.5 Z"/></g>
<g><path style="opacity:0.118" fill="#444444" d="M 445.5,376.5 C 445.573,378.027 444.906,379.027 443.5,379.5C 443.427,377.973 444.094,376.973 445.5,376.5 Z"/></g>
<g><path style="opacity:0.082" fill="#252525" d="M 55.5,379.5 C 56.9063,379.973 57.573,380.973 57.5,382.5C 56.0937,382.027 55.427,381.027 55.5,379.5 Z"/></g>
<g><path style="opacity:0.137" fill="#444444" d="M 443.5,379.5 C 443.573,381.027 442.906,382.027 441.5,382.5C 441.427,380.973 442.094,379.973 443.5,379.5 Z"/></g>
<g><path style="opacity:0.188" fill="#454545" d="M 441.5,382.5 C 441.262,384.404 440.262,385.738 438.5,386.5C 438.738,384.596 439.738,383.262 441.5,382.5 Z"/></g>
<g><path style="opacity:0.196" fill="#4d4d4d" d="M 68.5,384.5 C 67.6044,387.069 65.9377,389.069 63.5,390.5C 61.3886,389.395 60.0553,387.729 59.5,385.5C 60.8149,386.476 62.1482,387.476 63.5,388.5C 65.1856,387.143 66.8523,385.81 68.5,384.5 Z"/></g>
<g><path style="opacity:0.071" fill="#262626" d="M 432.5,386.5 C 433.482,387.141 434.482,387.807 435.5,388.5C 436.265,387.388 437.265,386.721 438.5,386.5C 436.457,391.807 434.457,391.807 432.5,386.5 Z"/></g>
<g><path style="opacity:0.004" fill="#000000" d="M 440.5,422.5 C 441.833,423.167 441.833,423.167 440.5,422.5 Z"/></g>
<g><path style="opacity:0.196" fill="#474747" d="M 88.5,441.5 C 90.0269,441.427 91.0269,442.094 91.5,443.5C 89.9731,443.573 88.9731,442.906 88.5,441.5 Z"/></g>
<g><path style="opacity:0.082" fill="#414141" d="M 119.5,463.5 C 121.027,463.427 122.027,464.094 122.5,465.5C 120.973,465.573 119.973,464.906 119.5,463.5 Z"/></g>
<g><path style="opacity:0.075" fill="#404040" d="M 126.5,467.5 C 128.027,467.427 129.027,468.094 129.5,469.5C 127.973,469.573 126.973,468.906 126.5,467.5 Z"/></g>
<g><path style="opacity:0.004" fill="#000000" d="M 101.5,473.5 C 102.833,474.167 102.833,474.167 101.5,473.5 Z"/></g>
<g><path style="opacity:0.008" fill="#242424" d="M 353.5,477.5 C 352.22,478.931 350.553,479.598 348.5,479.5C 349.78,478.069 351.447,477.402 353.5,477.5 Z"/></g>
<g><path style="opacity:0.004" fill="#000000" d="M 473.5,481.5 C 474.833,482.167 474.833,482.167 473.5,481.5 Z"/></g>
</svg>
