<?xml version="1.0" encoding="UTF-8"?>
<!DOCTYPE svg PUBLIC "-//W3C//DTD SVG 1.1//EN" "http://www.w3.org/Graphics/SVG/1.1/DTD/svg11.dtd">
<svg xmlns="http://www.w3.org/2000/svg" version="1.1" width="500px" height="500px" style="shape-rendering:geometricPrecision; text-rendering:geometricPrecision; image-rendering:optimizeQuality; fill-rule:evenodd; clip-rule:evenodd" xmlns:xlink="http://www.w3.org/1999/xlink">
<g><path style="opacity:0.004" fill="#000000" d="M 167.5,5.5 C 168.833,6.16667 168.833,6.16667 167.5,5.5 Z"/></g>
<g><path style="opacity:0.004" fill="#000000" d="M 483.5,8.5 C 484.833,9.16667 484.833,9.16667 483.5,8.5 Z"/></g>
<g><path style="opacity:0.004" fill="#000000" d="M 23.5,12.5 C 24.8333,13.1667 24.8333,13.1667 23.5,12.5 Z"/></g>
<g><path style="opacity:0.004" fill="#000000" d="M 458.5,19.5 C 459.833,20.1667 459.833,20.1667 458.5,19.5 Z"/></g>
<g><path style="opacity:0.996" fill="#fefefe" d="M 499.5,42.5 C 499.5,180.5 499.5,318.5 499.5,456.5C 495.534,464.627 489.2,470.127 480.5,473C 446.929,473.17 413.429,473.67 380,474.5C 310.237,473.668 240.404,473.168 170.5,473C 159.618,470.285 152.952,463.452 150.5,452.5C 151.498,426.672 151.831,400.672 151.5,374.5C 167.833,374.5 184.167,374.5 200.5,374.5C 200.5,390.833 200.5,407.167 200.5,423.5C 202.5,423.5 204.5,423.5 206.5,423.5C 286.522,423.822 366.522,423.489 446.5,422.5C 446.5,422.833 446.5,423.167 446.5,423.5C 444.374,424.685 445.707,424.685 450.5,423.5C 450.709,422.914 451.043,422.414 451.5,422C 450.668,306.57 450.168,191.07 450,75.5C 366.904,74.5016 283.737,74.1683 200.5,74.5C 200.5,91.1667 200.5,107.833 200.5,124.5C 184.167,124.5 167.833,124.5 151.5,124.5C 151.831,97.6614 151.498,70.9948 150.5,44.5C 154.489,33.346 162.323,26.6793 174,24.5C 275.042,25.8314 376.042,25.8314 477,24.5C 481.439,25.469 485.606,27.1357 489.5,29.5C 493.579,33.3579 496.913,37.6912 499.5,42.5 Z"/></g>
<g><path style="opacity:0.004" fill="#000000" d="M 47.5,25.5 C 48.8333,26.1667 48.8333,26.1667 47.5,25.5 Z"/></g>
<g><path style="opacity:0.004" fill="#000000" d="M 29.5,61.5 C 30.8333,62.1667 30.8333,62.1667 29.5,61.5 Z"/></g>
<g><path style="opacity:0.004" fill="#000000" d="M 56.5,70.5 C 57.8333,71.1667 57.8333,71.1667 56.5,70.5 Z"/></g>
<g><path style="opacity:0.004" fill="#000000" d="M 90.5,102.5 C 91.8333,103.167 91.8333,103.167 90.5,102.5 Z"/></g>
<g><path style="opacity:0.004" fill="#000000" d="M 114.5,128.5 C 115.833,129.167 115.833,129.167 114.5,128.5 Z"/></g>
<g><path style="opacity:0.004" fill="#000000" d="M 51.5,138.5 C 52.8333,139.167 52.8333,139.167 51.5,138.5 Z"/></g>
<g><path style="opacity:0.004" fill="#000000" d="M 214.5,141.5 C 215.833,142.167 215.833,142.167 214.5,141.5 Z"/></g>
<g><path style="opacity:0.985" fill="#fefefe" d="M 94.5,144.5 C 95.552,144.351 96.552,144.517 97.5,145C 109.209,156.375 120.542,168.041 131.5,180C 119.679,193.154 107.179,205.654 94,217.5C 93.028,219.305 91.8613,220.972 90.5,222.5C 91,222.833 91.5,223.167 92,223.5C 169.472,223.897 246.972,224.064 324.5,224C 325.624,224.839 326.291,226.006 326.5,227.5C 325.414,243.205 325.414,258.705 326.5,274C 324.2,274.658 321.867,275.158 319.5,275.5C 256.847,275.641 194.18,275.308 131.5,274.5C 117.768,274.36 104.101,274.86 90.5,276C 104.179,290.345 117.846,304.679 131.5,319C 120.524,330.976 109.191,342.643 97.5,354C 96.8333,354.667 96.1667,354.667 95.5,354C 65.3333,323.833 35.1667,293.667 5,263.5C 0.0721619,253.64 0.405495,243.973 6,234.5C 36.0642,204.937 65.5642,174.937 94.5,144.5 Z"/></g>
<g><path style="opacity:0.004" fill="#000000" d="M 19.5,148.5 C 20.8333,149.167 20.8333,149.167 19.5,148.5 Z"/></g>
<g><path style="opacity:0.004" fill="#000000" d="M 17.5,161.5 C 18.8333,162.167 18.8333,162.167 17.5,161.5 Z"/></g>
<g><path style="opacity:0.004" fill="#000000" d="M 168.5,171.5 C 169.833,172.167 169.833,172.167 168.5,171.5 Z"/></g>
<g><path style="opacity:0.004" fill="#000000" d="M 241.5,173.5 C 242.833,174.167 242.833,174.167 241.5,173.5 Z"/></g>
<g><path style="opacity:0.004" fill="#000000" d="M 426.5,177.5 C 427.833,178.167 427.833,178.167 426.5,177.5 Z"/></g>
<g><path style="opacity:0.004" fill="#000000" d="M 199.5,186.5 C 200.833,187.167 200.833,187.167 199.5,186.5 Z"/></g>
<g><path style="opacity:0.004" fill="#000000" d="M 408.5,189.5 C 409.833,190.167 409.833,190.167 408.5,189.5 Z"/></g>
<g><path style="opacity:0.004" fill="#000000" d="M 312.5,190.5 C 313.833,191.167 313.833,191.167 312.5,190.5 Z"/></g>
<g><path style="opacity:0.67" fill="#e8e5e6" d="M 150.5,44.5 C 151.498,70.9948 151.831,97.6614 151.5,124.5C 167.833,124.5 184.167,124.5 200.5,124.5C 200.5,107.833 200.5,91.1667 200.5,74.5C 283.737,74.1683 366.904,74.5016 450,75.5C 450.168,191.07 450.668,306.57 451.5,422C 451.043,422.414 450.709,422.914 450.5,423.5C 445.707,424.685 444.374,424.685 446.5,423.5C 447.5,423.5 448.5,423.5 449.5,423.5C 449.833,309.332 449.5,195.332 448.5,81.5C 448.859,79.2341 448.192,77.4007 446.5,76C 365.519,75.5085 284.686,75.3418 204,75.5C 203.333,76.1667 202.667,76.8333 202,77.5C 201.539,93.3423 201.373,109.009 201.5,124.5C 184.513,125.499 167.513,125.833 150.5,125.5C 150.5,98.5 150.5,71.5 150.5,44.5 Z"/></g>
<g><path style="opacity:0.004" fill="#000000" d="M 319.5,117.5 C 320.833,118.167 320.833,118.167 319.5,117.5 Z"/></g>
<g><path style="opacity:0.004" fill="#000000" d="M 232.5,111.5 C 233.833,112.167 233.833,112.167 232.5,111.5 Z"/></g>
<g><path style="opacity:0.004" fill="#000000" d="M 403.5,108.5 C 404.833,109.167 404.833,109.167 403.5,108.5 Z"/></g>
<g><path style="opacity:0.004" fill="#000000" d="M 383.5,97.5 C 384.833,98.1667 384.833,98.1667 383.5,97.5 Z"/></g>
<g><path style="opacity:0.004" fill="#000000" d="M 338.5,82.5 C 339.833,83.1667 339.833,83.1667 338.5,82.5 Z"/></g>
<g><path style="opacity:0.004" fill="#000000" d="M 325.5,81.5 C 326.833,82.1667 326.833,82.1667 325.5,81.5 Z"/></g>
<g><path style="opacity:0.004" fill="#000000" d="M 210.5,214.5 C 211.833,215.167 211.833,215.167 210.5,214.5 Z"/></g>
<g><path style="opacity:0.004" fill="#000000" d="M 375.5,217.5 C 376.833,218.167 376.833,218.167 375.5,217.5 Z"/></g>
<g><path style="opacity:0.004" fill="#000000" d="M 397.5,234.5 C 398.833,235.167 398.833,235.167 397.5,234.5 Z"/></g>
<g><path style="opacity:0.004" fill="#000000" d="M 368.5,244.5 C 369.833,245.167 369.833,245.167 368.5,244.5 Z"/></g>
<g><path style="opacity:0.004" fill="#000000" d="M 208.5,292.5 C 209.833,293.167 209.833,293.167 208.5,292.5 Z"/></g>
<g><path style="opacity:0.004" fill="#000000" d="M 4.5,298.5 C 5.83333,299.167 5.83333,299.167 4.5,298.5 Z"/></g>
<g><path style="opacity:0.004" fill="#000000" d="M 233.5,324.5 C 234.833,325.167 234.833,325.167 233.5,324.5 Z"/></g>
<g><path style="opacity:0.004" fill="#000000" d="M 401.5,325.5 C 402.833,326.167 402.833,326.167 401.5,325.5 Z"/></g>
<g><path style="opacity:0.004" fill="#000000" d="M 374.5,328.5 C 375.833,329.167 375.833,329.167 374.5,328.5 Z"/></g>
<g><path style="opacity:0.004" fill="#000000" d="M 428.5,332.5 C 429.833,333.167 429.833,333.167 428.5,332.5 Z"/></g>
<g><path style="opacity:0.004" fill="#000000" d="M 351.5,341.5 C 352.833,342.167 352.833,342.167 351.5,341.5 Z"/></g>
<g><path style="opacity:0.004" fill="#000000" d="M 346.5,360.5 C 347.833,361.167 347.833,361.167 346.5,360.5 Z"/></g>
<g><path style="opacity:0.004" fill="#000000" d="M 168.5,362.5 C 169.833,363.167 169.833,363.167 168.5,362.5 Z"/></g>
<g><path style="opacity:0.004" fill="#000000" d="M 444.5,362.5 C 445.833,363.167 445.833,363.167 444.5,362.5 Z"/></g>
<g><path style="opacity:0.056" fill="#cccaca" d="M 448.5,81.5 C 449.5,195.332 449.833,309.332 449.5,423.5C 448.5,423.5 447.5,423.5 446.5,423.5C 446.5,423.167 446.5,422.833 446.5,422.5C 448.498,309.172 449.165,195.505 448.5,81.5 Z"/></g>
<g><path style="opacity:0.004" fill="#000000" d="M 180.5,367.5 C 181.833,368.167 181.833,368.167 180.5,367.5 Z"/></g>
<g><path style="opacity:0.004" fill="#000000" d="M 231.5,377.5 C 232.833,378.167 232.833,378.167 231.5,377.5 Z"/></g>
<g><path style="opacity:0.004" fill="#000000" d="M 122.5,387.5 C 123.833,388.167 123.833,388.167 122.5,387.5 Z"/></g>
<g><path style="opacity:0.117" fill="#e0dfdf" d="M 206.5,423.5 C 204.5,423.5 202.5,423.5 200.5,423.5C 200.5,407.167 200.5,390.833 200.5,374.5C 184.167,374.5 167.833,374.5 151.5,374.5C 151.831,400.672 151.498,426.672 150.5,452.5C 150.5,426.167 150.5,399.833 150.5,373.5C 167.5,373.5 184.5,373.5 201.5,373.5C 201.333,389.503 201.5,405.503 202,421.5C 203.622,422.099 205.122,422.766 206.5,423.5 Z"/></g>
<g><path style="opacity:0.004" fill="#000000" d="M 414.5,389.5 C 415.833,390.167 415.833,390.167 414.5,389.5 Z"/></g>
<g><path style="opacity:0.004" fill="#000000" d="M 20.5,390.5 C 21.8333,391.167 21.8333,391.167 20.5,390.5 Z"/></g>
<g><path style="opacity:0.004" fill="#000000" d="M 213.5,396.5 C 214.833,397.167 214.833,397.167 213.5,396.5 Z"/></g>
<g><path style="opacity:0.004" fill="#000000" d="M 19.5,398.5 C 20.8333,399.167 20.8333,399.167 19.5,398.5 Z"/></g>
<g><path style="opacity:0.004" fill="#000000" d="M 60.5,410.5 C 61.8333,411.167 61.8333,411.167 60.5,410.5 Z"/></g>
<g><path style="opacity:0.004" fill="#000000" d="M 115.5,438.5 C 116.833,439.167 116.833,439.167 115.5,438.5 Z"/></g>
<g><path style="opacity:0.004" fill="#000000" d="M 161.5,479.5 C 162.833,480.167 162.833,480.167 161.5,479.5 Z"/></g>
<g><path style="opacity:0.004" fill="#000000" d="M 445.5,481.5 C 446.833,482.167 446.833,482.167 445.5,481.5 Z"/></g>
<g><path style="opacity:0.004" fill="#000000" d="M 26.5,492.5 C 27.8333,493.167 27.8333,493.167 26.5,492.5 Z"/></g>
<g><path style="opacity:0.004" fill="#000000" d="M 394.5,493.5 C 395.833,494.167 395.833,494.167 394.5,493.5 Z"/></g>
<g><path style="opacity:0.004" fill="#000000" d="M 100.5,499.5 C 99.8333,498.167 99.8333,498.167 100.5,499.5 Z"/></g>
</svg>
