<?xml version="1.0" encoding="UTF-8"?>
<!DOCTYPE svg PUBLIC "-//W3C//DTD SVG 1.1//EN" "http://www.w3.org/Graphics/SVG/1.1/DTD/svg11.dtd">
<svg xmlns="http://www.w3.org/2000/svg" version="1.1" width="500px" height="500px" style="shape-rendering:geometricPrecision; text-rendering:geometricPrecision; image-rendering:optimizeQuality; fill-rule:evenodd; clip-rule:evenodd" xmlns:xlink="http://www.w3.org/1999/xlink">
<g><path style="opacity:0.997" fill="#fdfcfc" d="M 220.5,-0.5 C 222.5,-0.5 224.5,-0.5 226.5,-0.5C 226.833,0.833333 227.167,0.833333 227.5,-0.5C 244.167,-0.5 260.833,-0.5 277.5,-0.5C 278.866,1.3505 280.533,1.68383 282.5,0.5C 286.422,1.2353 290.256,2.2353 294,3.5C 294.333,3.16667 294.667,2.83333 295,2.5C 301.645,3.95241 308.145,5.61908 314.5,7.5C 322.205,10.7351 330.205,13.4017 338.5,15.5C 406.601,42.433 454.767,89.7663 483,157.5C 491.185,180.328 496.685,203.661 499.5,227.5C 499.5,243.5 499.5,259.5 499.5,275.5C 487.311,362.69 442.478,428.356 365,472.5C 354.638,477.435 342.971,482.435 330,487.5C 328.853,486.542 327.853,486.875 327,488.5C 325.853,487.542 324.853,487.875 324,489.5C 323.667,489.167 323.333,488.833 323,488.5C 318.619,490.094 314.285,491.761 310,493.5C 309.667,493.167 309.333,492.833 309,492.5C 306.2,493.128 303.533,494.128 301,495.5C 300.667,495.167 300.333,494.833 300,494.5C 296.282,495.287 292.616,496.287 289,497.5C 288.586,497.043 288.086,496.709 287.5,496.5C 283.594,497.044 279.927,498.044 276.5,499.5C 276.167,499.5 275.833,499.5 275.5,499.5C 273.833,498.167 272.167,498.167 270.5,499.5C 256.5,499.5 242.5,499.5 228.5,499.5C 136.641,489.124 68.3079,442.624 23.5,360C 18.647,348.677 13.9803,336.844 9.5,324.5C 9.70931,323.914 10.0426,323.414 10.5,323C 7.42974,315.816 5.09641,308.65 3.5,301.5C 3.70931,300.914 4.04265,300.414 4.5,300C 2.22867,291.849 0.562003,283.682 -0.5,275.5C -0.5,257.5 -0.5,239.5 -0.5,221.5C 1.20463,211.619 3.03796,201.619 5,191.5C 5.71719,190.956 6.21719,190.289 6.5,189.5C 10.7053,174.551 15.7053,159.884 21.5,145.5C 41.6556,100.27 72.9889,64.1033 115.5,37C 127.298,29.7678 139.631,23.6012 152.5,18.5C 161.108,16.0768 169.441,13.0768 177.5,9.5C 185.852,6.42222 194.519,4.08889 203.5,2.5C 204.086,2.70931 204.586,3.04265 205,3.5C 209.218,1.51809 213.551,0.851425 218,1.5C 219.301,1.36126 220.134,0.694594 220.5,-0.5 Z M 284.5,46.5 C 347.399,59.0857 395.399,92.7524 428.5,147.5C 442.492,173.809 450.825,201.809 453.5,231.5C 453.328,232.492 453.662,233.158 454.5,233.5C 454.5,245.5 454.5,257.5 454.5,269.5C 453.833,269.5 453.5,269.833 453.5,270.5C 451.888,287.949 448.221,304.949 442.5,321.5C 405.94,406.064 341.44,450.731 249,455.5C 164.474,451.782 102.807,412.782 64,338.5C 58.78,326.661 54.28,314.661 50.5,302.5C 43.1912,271.02 42.1912,239.353 47.5,207.5C 66.7206,130.774 113.721,79.2742 188.5,53C 197.263,50.6797 205.929,48.513 214.5,46.5C 237.831,43.8334 261.164,43.8334 284.5,46.5 Z"/></g>
<g><path style="opacity:0.18" fill="#d0cecc" d="M 314.5,7.5 C 322.915,9.19369 330.915,11.8604 338.5,15.5C 330.205,13.4017 322.205,10.7351 314.5,7.5 Z"/></g>
<g><path style="opacity:0.051" fill="#d4cdcb" d="M 177.5,9.5 C 169.441,13.0768 161.108,16.0768 152.5,18.5C 160.406,14.5294 168.74,11.5294 177.5,9.5 Z"/></g>
<g><path style="opacity:0.004" fill="#000000" d="M 73.5,14.5 C 74.8333,15.1667 74.8333,15.1667 73.5,14.5 Z"/></g>
<g><path style="opacity:0.004" fill="#000000" d="M 374.5,18.5 C 375.833,19.1667 375.833,19.1667 374.5,18.5 Z"/></g>
<g><path style="opacity:0.004" fill="#000000" d="M 464.5,35.5 C 465.833,36.1667 465.833,36.1667 464.5,35.5 Z"/></g>
<g><path style="opacity:0.004" fill="#000000" d="M 434.5,39.5 C 435.833,40.1667 435.833,40.1667 434.5,39.5 Z"/></g>
<g><path style="opacity:0.18" fill="#d2cac9" d="M 284.5,46.5 C 261.164,43.8334 237.831,43.8334 214.5,46.5C 237.823,41.2214 261.157,41.2214 284.5,46.5 Z"/></g>
<g><path style="opacity:0.004" fill="#000000" d="M 13.5,67.5 C 14.8333,68.1667 14.8333,68.1667 13.5,67.5 Z"/></g>
<g><path style="opacity:0.998" fill="#fefefd" d="M 247.5,74.5 C 253.64,74.2962 259.306,76.1295 264.5,80C 266.141,81.129 267.141,82.629 267.5,84.5C 268.32,86.8123 269.153,89.1457 270,91.5C 270.333,132.167 270.667,172.833 271,213.5C 271.838,214.999 272.671,215.332 273.5,214.5C 278.248,216.913 281.581,220.58 283.5,225.5C 283.953,226.458 284.619,227.292 285.5,228C 314.833,228.333 344.167,228.667 373.5,229C 375.854,229.847 378.188,230.68 380.5,231.5C 382.716,232.203 384.549,233.536 386,235.5C 391.474,244.215 391.808,252.882 387,261.5C 385.594,264.409 383.428,266.409 380.5,267.5C 378.188,268.32 375.854,269.153 373.5,270C 344.167,270.333 314.833,270.667 285.5,271C 284.177,271.816 283.511,272.983 283.5,274.5C 280.136,280.196 275.469,284.53 269.5,287.5C 258.04,291.843 246.374,292.51 234.5,289.5C 233.209,289.737 232.209,289.404 231.5,288.5C 208.321,273.96 201.988,253.96 212.5,228.5C 215.113,222.887 219.113,218.554 224.5,215.5C 225.496,215.586 226.329,215.252 227,214.5C 227.333,174.167 227.667,133.833 228,93.5C 231.147,83.517 237.647,77.1837 247.5,74.5 Z"/></g>
<g><path style="opacity:0.004" fill="#000000" d="M 2.5,78.5 C 3.83333,79.1667 3.83333,79.1667 2.5,78.5 Z"/></g>
<g><path style="opacity:0.004" fill="#000000" d="M 8.5,91.5 C 9.83333,92.1667 9.83333,92.1667 8.5,91.5 Z"/></g>
<g><path style="opacity:0.004" fill="#000000" d="M 9.5,108.5 C 10.8333,109.167 10.8333,109.167 9.5,108.5 Z"/></g>
<g><path style="opacity:0.004" fill="#000000" d="M 463.5,113.5 C 464.833,114.167 464.833,114.167 463.5,113.5 Z"/></g>
<g><path style="opacity:0.521" fill="#e6e3e1" d="M 267.5,84.5 C 270.61,87.4016 272.11,91.0683 272,95.5C 272.601,135.095 273.101,174.762 273.5,214.5C 272.671,215.332 271.838,214.999 271,213.5C 270.667,172.833 270.333,132.167 270,91.5C 269.153,89.1457 268.32,86.8123 267.5,84.5 Z"/></g>
<g><path style="opacity:0.059" fill="#bdbcba" d="M 247.5,74.5 C 237.647,77.1837 231.147,83.517 228,93.5C 227.667,133.833 227.333,174.167 227,214.5C 226.329,215.252 225.496,215.586 224.5,215.5C 224.783,214.711 225.283,214.044 226,213.5C 226.333,173.167 226.667,132.833 227,92.5C 229.971,82.0255 236.804,76.0255 247.5,74.5 Z"/></g>
<g><path style="opacity:0.039" fill="#d3d0cf" d="M 21.5,145.5 C 15.7053,159.884 10.7053,174.551 6.5,189.5C 9.04372,174.206 14.0437,159.539 21.5,145.5 Z"/></g>
<g><path style="opacity:0.043" fill="#d3d0d0" d="M 428.5,147.5 C 443.03,171.59 451.696,197.756 454.5,226C 454.494,228.033 454.161,229.866 453.5,231.5C 450.825,201.809 442.492,173.809 428.5,147.5 Z"/></g>
<g><path style="opacity:0.522" fill="#e9e8e5" d="M 283.5,225.5 C 312.458,226.317 341.458,226.817 370.5,227C 374.525,227.183 377.858,228.683 380.5,231.5C 378.188,230.68 375.854,229.847 373.5,229C 344.167,228.667 314.833,228.333 285.5,228C 284.619,227.292 283.953,226.458 283.5,225.5 Z"/></g>
<g><path style="opacity:0.289" fill="#d7d3d2" d="M 47.5,207.5 C 42.1912,239.353 43.1912,271.02 50.5,302.5C 47.735,295.542 45.9016,288.208 45,280.5C 41.0117,255.845 41.845,231.512 47.5,207.5 Z"/></g>
<g><path style="opacity:0.49" fill="#d3d1d0" d="M 454.5,233.5 C 457.072,245.49 457.072,257.49 454.5,269.5C 454.5,257.5 454.5,245.5 454.5,233.5 Z"/></g>
<g><path style="opacity:0.369" fill="#e5cecb" d="M 380.5,267.5 C 377.598,270.61 373.932,272.11 369.5,272C 344.004,271.954 318.504,271.787 293,271.5C 289.246,271.009 286.079,272.009 283.5,274.5C 283.511,272.983 284.177,271.816 285.5,271C 314.833,270.667 344.167,270.333 373.5,270C 375.854,269.153 378.188,268.32 380.5,267.5 Z"/></g>
<g><path style="opacity:0.112" fill="#d0cbcb" d="M 212.5,228.5 C 201.988,253.96 208.321,273.96 231.5,288.5C 219.691,283.52 211.858,274.853 208,262.5C 205.783,252.737 206.117,243.07 209,233.5C 209.697,231.416 210.864,229.749 212.5,228.5 Z"/></g>
<g><path style="opacity:0.2" fill="#bfbcbb" d="M 269.5,287.5 C 260.81,292.139 251.477,293.639 241.5,292C 238.809,291.844 236.476,291.011 234.5,289.5C 246.374,292.51 258.04,291.843 269.5,287.5 Z"/></g>
<g><path style="opacity:0.063" fill="#cdc9c9" d="M 453.5,270.5 C 454.641,273.64 454.808,276.973 454,280.5C 451.853,294.77 448.019,308.437 442.5,321.5C 448.221,304.949 451.888,287.949 453.5,270.5 Z"/></g>
<g><path style="opacity:0.004" fill="#000000" d="M 9.5,333.5 C 10.8333,334.167 10.8333,334.167 9.5,333.5 Z"/></g>
<g><path style="opacity:0.004" fill="#000000" d="M 480.5,367.5 C 481.833,368.167 481.833,368.167 480.5,367.5 Z"/></g>
<g><path style="opacity:0.004" fill="#000000" d="M 461.5,397.5 C 462.833,398.167 462.833,398.167 461.5,397.5 Z"/></g>
<g><path style="opacity:0.004" fill="#000000" d="M 45.5,449.5 C 46.8333,450.167 46.8333,450.167 45.5,449.5 Z"/></g>
<g><path style="opacity:0.004" fill="#000000" d="M 22.5,474.5 C 23.8333,475.167 23.8333,475.167 22.5,474.5 Z"/></g>
<g><path style="opacity:0.004" fill="#000000" d="M 430.5,477.5 C 431.833,478.167 431.833,478.167 430.5,477.5 Z"/></g>
<g><path style="opacity:0.004" fill="#000000" d="M 341.5,494.5 C 342.833,495.167 342.833,495.167 341.5,494.5 Z"/></g>
<g><path style="opacity:0.004" fill="#000000" d="M 366.5,495.5 C 367.833,496.167 367.833,496.167 366.5,495.5 Z"/></g>
</svg>
