<?xml version="1.0" encoding="UTF-8"?>
<svg version="1.1" xmlns="http://www.w3.org/2000/svg" width="500" height="500">
<path d="M0 0 C5.965364 5.88177841 7.18869817 12.28123434 7.30977096 20.39446362 C7.31716705 22.75809075 7.3002931 25.12088451 7.28307283 27.48445123 C7.28883833 29.20656731 7.29678233 30.92867724 7.30670905 32.65077436 C7.32754657 37.36961993 7.3172813 42.08795872 7.30177796 46.80680591 C7.29045581 51.90095248 7.30793141 56.99501247 7.32167757 62.08914179 C7.34390474 72.06295518 7.33911119 82.03658039 7.32461436 92.01040114 C7.31332074 100.11606474 7.31179176 108.22167562 7.31723344 116.32734483 C7.31799961 117.48114128 7.31876577 118.63493772 7.31955516 119.8236977 C7.32115379 122.16762706 7.32277485 124.5115564 7.32441811 126.85548573 C7.33867393 148.83151489 7.32228514 170.80743974 7.29541628 192.78345179 C7.27307471 211.64045642 7.2769603 230.49730716 7.30001009 249.35430902 C7.32676588 271.25344637 7.33730378 293.15249232 7.32194877 315.05164373 C7.32035602 317.38662677 7.31878417 319.72160982 7.31723344 322.05659288 C7.31646207 323.20544628 7.31569069 324.35429967 7.31489594 325.53796681 C7.31057851 333.6345362 7.31786637 341.73104763 7.32963121 349.82760805 C7.34365212 359.69363649 7.33986461 369.55946602 7.31322749 379.42547167 C7.30008439 384.45942403 7.29494552 389.49304472 7.31147325 394.52699465 C7.32637522 399.13545634 7.31818048 403.74327898 7.29158549 408.35168272 C7.28600162 410.01842957 7.28883891 411.68523044 7.30096443 413.35194255 C7.3648816 422.86781825 7.16820117 430.02072511 0.17016602 437.12561798 C-5.09030269 441.87605176 -10.25793034 443.24495405 -17.19046843 443.04498285 C-20.65122773 442.58529438 -22.93702579 441.61032705 -26.02372038 440.00006098 C-27.0705197 439.45414301 -28.11731902 438.90822504 -29.19583952 438.3457641 C-34.03848413 435.70547949 -38.7987029 432.94364705 -43.53934538 430.12506098 C-51.92074921 425.18677154 -60.34954336 420.35211444 -68.85184538 415.62506098 C-77.03392582 411.07268731 -85.15502241 406.43263262 -93.22684538 401.68756098 C-101.84560989 396.62231572 -110.53838189 391.70674868 -119.28934538 386.87506098 C-127.16684961 382.52383514 -135.00292554 378.12982076 -142.73709929 373.52886957 C-149.33644235 369.61055926 -155.99786658 365.80272224 -162.66434538 362.00006098 C-163.26125182 361.65951685 -163.85815825 361.31897272 -164.47315276 360.96810907 C-167.53994368 359.21869135 -170.60716786 357.47003503 -173.67459929 355.72174066 C-178.99013239 352.69166392 -184.30184658 349.65490756 -189.61374724 346.61846918 C-191.35654715 345.62237369 -193.09952784 344.62659529 -194.84256804 343.63092035 C-200.12284122 340.6145431 -205.40240019 337.59694443 -210.6787802 334.57376093 C-213.63187554 332.88178257 -216.58547528 331.19068633 -219.53934538 329.50006098 C-220.12035002 329.16750299 -220.70135466 328.83494501 -221.2999655 328.49230951 C-229.5396975 323.77836165 -237.80984515 319.12143795 -246.10184538 314.50006098 C-255.29143424 309.3770084 -264.39935146 304.12806368 -273.4739157 298.80426019 C-280.23064155 294.84567368 -287.02557886 290.96235966 -293.85184538 287.12506098 C-301.68819968 282.71995434 -309.47315977 278.2365499 -317.22684538 273.68756098 C-325.34350947 268.92835809 -333.50732357 264.26678774 -341.72684538 259.68756098 C-350.13399387 254.99954759 -358.52334455 250.28281541 -366.87217009 245.49172968 C-368.55956996 244.5242986 -370.24937979 243.56107483 -371.93924773 242.59796137 C-372.9674362 242.00620111 -373.99562468 241.41444086 -375.05497038 240.80474848 C-375.95892546 240.28638422 -376.86288054 239.76801996 -377.7942282 239.23394769 C-383.76609107 235.4773062 -388.07141615 231.46634868 -390.35184538 224.62506098 C-391.04693897 217.92237278 -391.23965963 211.99738076 -386.99100554 206.48419183 C-381.01156904 199.7023317 -372.37199428 195.60959961 -364.60184538 191.25006098 C-363.36193023 190.54882446 -362.1223537 189.84698889 -360.88309538 189.14459223 C-358.3147316 187.68948249 -355.7449476 186.23692983 -353.17411101 184.78619379 C-347.21962714 181.4231875 -341.28702638 178.02198358 -335.35184538 174.62506098 C-333.01873805 173.29133203 -330.68529129 171.95819745 -328.35184538 170.62506098 C-327.18517246 169.95840526 -326.01850579 169.2917386 -324.85184538 168.62506098 C-285.18517872 145.95839431 -245.51851205 123.29172764 -205.85184538 100.62506098 C-205.27435545 100.29506601 -204.69686553 99.96507105 -204.1018759 99.62507623 C-202.93511001 98.95835432 -201.76834162 98.29163679 -200.60157073 97.62492365 C-197.6864016 95.95913813 -194.77127591 94.2932767 -191.85623991 92.62725824 C-185.99896678 89.27978487 -180.14095009 85.93362383 -174.28153288 82.58990473 C-167.30210333 78.60663137 -160.32526615 74.61884702 -153.35184538 70.62506098 C-152.4763806 70.12368616 -152.4763806 70.12368616 -151.58322966 69.61218256 C-134.07044424 59.63614332 -134.07044424 59.63614332 -116.86747038 49.14068598 C-114.35184538 47.62506098 -114.35184538 47.62506098 -111.67606413 46.28912348 C-106.99238141 43.94453024 -102.46662505 41.3387099 -97.91434538 38.75006098 C-95.86359229 37.5872509 -93.81281016 36.42449203 -91.76200163 35.26177973 C-90.7089987 34.66413812 -89.65599577 34.06649652 -88.57108366 33.45074457 C-83.33511153 30.48133765 -78.09316513 27.52251504 -72.85184538 24.56256098 C-67.01072416 21.2634965 -61.17406747 17.95736991 -55.35184538 14.62506098 C-53.71215788 13.69693598 -53.71215788 13.69693598 -52.03934538 12.75006098 C-50.10158324 11.64702714 -48.18538856 10.52279544 -46.28543913 9.35552973 C-40.81887858 5.99789608 -35.24474854 2.86171502 -29.60184538 -0.18743902 C-28.88077605 -0.58471197 -28.15970671 -0.98198492 -27.41678679 -1.39129645 C-18.48306203 -6.16386779 -8.18936737 -6.98221818 0 0 Z M-48.35184538 29.62506098 C-49.27626433 30.1344018 -50.20068327 30.64374262 -51.15311491 31.16851801 C-58.58102161 35.27082288 -65.96937444 39.44169861 -73.35184538 43.62506098 C-75.29831683 44.7255746 -77.2449266 45.8258436 -79.19168913 46.92584223 C-82.02217847 48.52539839 -84.8524177 50.12538498 -87.68167937 51.72711176 C-93.70953746 55.13840539 -99.74820397 58.5297646 -105.7942282 61.90875238 C-110.98308403 64.80887539 -116.16840238 67.71527586 -121.35184538 70.62506098 C-122.36279265 71.19240961 -123.37373991 71.75975824 -124.41532195 72.34429926 C-127.31383414 73.97430051 -130.20845794 75.61098371 -133.10184538 77.25006098 C-133.96503386 77.73482904 -134.82822234 78.21959711 -135.71756804 78.71905512 C-142.93925338 82.82594446 -148.82680451 86.35152278 -151.35184538 94.62506098 C-152.36117285 101.57820572 -151.97025256 107.0631763 -147.93387663 112.90631098 C-144.34904831 116.80093927 -140.05948643 119.50848614 -135.50418913 122.13677973 C-134.94381957 122.46215219 -134.38345 122.78752466 -133.80609953 123.1227569 C-132.59907562 123.82343514 -131.39107727 124.52243699 -130.18219817 125.21990961 C-126.91790652 127.10422558 -123.6619942 129.00288458 -120.40653288 130.90240473 C-119.73672896 131.2930813 -119.06692503 131.68375787 -118.37682402 132.08627313 C-111.50714315 136.10255951 -104.70599551 140.2286035 -97.91434538 144.37506098 C-88.74249578 149.97244889 -79.53164372 155.49496771 -70.26248991 160.92999262 C-62.80503777 165.31848583 -55.45089588 169.86535221 -48.13724577 174.48931879 C-47.31989958 175.0020434 -46.50255339 175.51476801 -45.66043913 176.04302973 C-44.94686247 176.4944433 -44.23328581 176.94585687 -43.49808562 177.41094965 C-37.22312939 180.96064335 -31.46539197 181.61933051 -24.35184538 180.62506098 C-17.88118932 178.16097306 -14.27586796 173.91225104 -11.37113249 167.77984613 C-9.25306876 161.22424863 -9.60863153 154.32228146 -9.60184538 147.50006098 C-9.5822735 145.81025176 -9.5601633 144.12047028 -9.53568327 142.43072504 C-9.48643212 138.90991821 -9.44826757 135.38923279 -9.41678679 131.86822504 C-9.36479347 126.90726255 -9.23812352 121.95092115 -9.08231413 116.99224848 C-8.52226043 98.99775381 -8.18550248 80.99772673 -8.06574309 62.99481195 C-8.04828436 60.76615027 -8.02404229 58.53753038 -7.99268401 56.30902094 C-7.95075637 53.18498459 -7.93515689 50.06184358 -7.92606413 46.93756098 C-7.90860137 46.01219537 -7.8911386 45.08682977 -7.87314665 44.13342279 C-7.89611469 37.17282353 -9.39838193 31.61253744 -14.38700163 26.56646723 C-15.05602507 26.11142816 -15.72504851 25.6563891 -16.41434538 25.18756098 C-17.08594695 24.71447504 -17.75754851 24.2413891 -18.44950163 23.75396723 C-29.05663051 17.45938767 -39.00682684 24.44227767 -48.35184538 29.62506098 Z M-193.36747038 117.92584223 C-197.98428014 121.67942494 -201.21457593 125.68310516 -202.35184538 131.62506098 C-202.45054342 133.9782139 -202.49112316 136.33398504 -202.4990164 138.68919367 C-202.50269309 139.40088294 -202.50636978 140.11257221 -202.51015788 140.84582782 C-202.5211717 143.23082368 -202.52503465 145.61577594 -202.52884734 148.0007934 C-202.53511375 149.71089815 -202.5417607 151.42100155 -202.54876006 153.13110346 C-202.56978236 158.74756927 -202.58016097 164.36403529 -202.59012663 169.98052973 C-202.59417492 171.91567811 -202.59829186 173.85082635 -202.60247672 175.78597444 C-202.62152463 184.87837238 -202.63575631 193.97076222 -202.64408869 203.06317627 C-202.65385896 213.55086543 -202.68017471 224.03834342 -202.72058958 234.52595818 C-202.75077243 242.63736682 -202.76555964 250.74871501 -202.7688697 258.86017871 C-202.77121776 263.7023695 -202.78014652 268.54433458 -202.80533087 273.38646501 C-202.82865448 277.94442405 -202.83282762 282.50200945 -202.82256949 287.06001276 C-202.82207506 288.72847037 -202.82836816 290.39694665 -202.84212554 292.06534761 C-203.12826235 305.5708884 -203.12826235 305.5708884 -196.93986285 317.19113439 C-191.72134885 321.8825319 -186.31290926 323.29585442 -179.46122038 323.10552973 C-173.12249691 322.12605361 -167.82247958 318.79524184 -162.35184538 315.62506098 C-161.50460906 315.13666742 -160.65737273 314.64827387 -159.78446257 314.14508051 C-154.76599489 311.24331131 -149.7650464 308.31270155 -144.76981413 305.37115473 C-138.5127796 301.69956151 -132.19245742 298.14982809 -125.85184538 294.62506098 C-117.62961559 290.04977249 -109.46602215 285.38934825 -101.35184538 280.62506098 C-93.23765269 275.86076435 -85.07372154 271.20100262 -76.85184538 266.62506098 C-66.46323885 260.84027476 -56.16439611 254.91624897 -45.91825163 248.88287348 C-42.40584316 246.8158981 -38.87701401 244.7879834 -35.31668913 242.80474848 C-23.25152326 236.52012035 -23.25152326 236.52012035 -15.71903288 225.72662348 C-14.67616881 219.75789077 -14.24941845 213.73428633 -17.28934538 208.31256098 C-23.28176939 200.38796505 -33.68896478 196.03963551 -42.16434538 191.25006098 C-43.3973676 190.55004352 -44.63019227 189.84967801 -45.86283171 189.14898676 C-48.41867736 187.6963905 -50.9753594 186.24528142 -53.53250945 184.79498285 C-57.20408357 182.71098424 -60.86889688 180.61534507 -64.53153288 178.51568598 C-75.83607609 172.03692835 -87.1597422 165.59654496 -98.53934538 159.25006098 C-105.95057576 155.11553128 -113.31717151 150.92435974 -120.6145407 146.59234613 C-130.44855083 140.76765864 -140.39018877 135.12738771 -150.329476 129.48486322 C-153.84216331 127.48935091 -157.34275003 125.47430371 -160.83622038 123.44537348 C-162.40370181 122.54654016 -163.97139129 121.64806951 -165.53934538 120.75006098 C-166.21408904 120.35174066 -166.88883269 119.95342035 -167.58402312 119.54302973 C-175.75107487 114.91204667 -184.98259953 112.51467557 -193.36747038 117.92584223 Z M-52.47684538 271.06256098 C-60.74228526 275.96922139 -69.06607611 280.71152266 -77.53934538 285.25006098 C-85.87487863 289.72117664 -94.13118942 294.30203023 -102.3266989 299.02471918 C-107.14343476 301.79807434 -111.97553021 304.53950438 -116.83231413 307.24224848 C-117.93712126 307.85721185 -119.04192839 308.47217523 -120.18021452 309.10577387 C-122.30677606 310.28740693 -124.43476642 311.46647397 -126.56449187 312.64239496 C-141.97132633 320.22105231 -141.97132633 320.22105231 -151.35184538 333.62506098 C-152.09573895 343.15737028 -152.09573895 343.15737028 -148.35184538 351.62506098 C-142.81102464 357.15815752 -136.64447972 361.06065613 -129.85184538 364.87506098 C-127.71042254 366.10153358 -125.56984207 367.32947777 -123.42997038 368.55865473 C-122.28850554 369.21204828 -121.1470407 369.86544183 -119.97098601 370.53863519 C-113.47550422 374.2715204 -107.04154559 378.10956906 -100.60184538 381.93756098 C-99.92771605 382.3377746 -99.25358672 382.73798822 -98.55902922 383.15032953 C-89.44318081 388.56324237 -80.36193879 394.03024867 -71.30890715 399.54751581 C-67.35797503 401.95337012 -63.40097287 404.3492308 -59.44461882 406.74615473 C-57.44228204 407.96260435 -55.44273692 409.18366611 -53.44657195 410.41021723 C-50.86127681 411.99692026 -48.2648499 413.56345345 -45.66434538 415.12506098 C-44.94077849 415.57623285 -44.21721159 416.02740473 -43.47171843 416.49224848 C-38.05183479 419.70516829 -32.43030888 421.53480013 -26.1157614 420.12628168 C-20.11660553 418.20111781 -15.28497248 414.74276311 -12.22293913 409.15631098 C-9.73674923 403.94941821 -9.71862349 399.00449613 -9.66434538 393.31256098 C-9.63800017 392.1287182 -9.61165495 390.94487543 -9.5845114 389.72515863 C-9.52570072 386.96327274 -9.4746001 384.20212117 -9.43290007 381.44000238 C-9.34769637 376.02560426 -9.21120806 370.61268174 -9.07840788 365.19927973 C-8.76339434 352.00888664 -8.54255542 338.81777678 -8.35184538 325.62506098 C-8.33404021 324.46190363 -8.31623503 323.29874628 -8.29789031 322.10034174 C-8.19306702 315.14814095 -8.11260158 308.19637133 -8.06574309 301.24353021 C-8.04828185 299.05673743 -8.02403769 296.86998727 -7.99268401 294.68334955 C-7.95092818 291.63895919 -7.93519852 288.59548227 -7.92606413 285.55084223 C-7.90860137 284.66037699 -7.8911386 283.76991174 -7.87314665 282.85246271 C-7.89734858 275.81296041 -9.63389869 270.41850619 -14.60184538 265.31256098 C-28.76151744 256.62367131 -39.47290956 263.21884842 -52.47684538 271.06256098 Z " fill="#F7F7F7" transform="translate(418.3518453836441,42.374939024448395)"/>
<path d="" fill="#000000" transform="translate(0,0)"/>
<path d="" fill="#000000" transform="translate(0,0)"/>
<path d="" fill="#000000" transform="translate(0,0)"/>
<path d="" fill="#000000" transform="translate(0,0)"/>
<path d="" fill="#000000" transform="translate(0,0)"/>
<path d="" fill="#000000" transform="translate(0,0)"/>
<path d="" fill="#000000" transform="translate(0,0)"/>
<path d="" fill="#000000" transform="translate(0,0)"/>
<path d="" fill="#000000" transform="translate(0,0)"/>
<path d="" fill="#000000" transform="translate(0,0)"/>
<path d="" fill="#000000" transform="translate(0,0)"/>
<path d="" fill="#000000" transform="translate(0,0)"/>
<path d="" fill="#000000" transform="translate(0,0)"/>
<path d="" fill="#000000" transform="translate(0,0)"/>
<path d="" fill="#000000" transform="translate(0,0)"/>
<path d="" fill="#000000" transform="translate(0,0)"/>
<path d="" fill="#000000" transform="translate(0,0)"/>
<path d="" fill="#000000" transform="translate(0,0)"/>
<path d="" fill="#000000" transform="translate(0,0)"/>
<path d="" fill="#000000" transform="translate(0,0)"/>
<path d="" fill="#000000" transform="translate(0,0)"/>
<path d="" fill="#000000" transform="translate(0,0)"/>
<path d="" fill="#000000" transform="translate(0,0)"/>
<path d="" fill="#000000" transform="translate(0,0)"/>
<path d="" fill="#000000" transform="translate(0,0)"/>
<path d="" fill="#000000" transform="translate(0,0)"/>
<path d="" fill="#000000" transform="translate(0,0)"/>
<path d="" fill="#000000" transform="translate(0,0)"/>
<path d="" fill="#000000" transform="translate(0,0)"/>
<path d="" fill="#000000" transform="translate(0,0)"/>
<path d="" fill="#000000" transform="translate(0,0)"/>
<path d="" fill="#000000" transform="translate(0,0)"/>
<path d="" fill="#000000" transform="translate(0,0)"/>
<path d="" fill="#000000" transform="translate(0,0)"/>
<path d="" fill="#000000" transform="translate(0,0)"/>
<path d="" fill="#000000" transform="translate(0,0)"/>
<path d="" fill="#000000" transform="translate(0,0)"/>
<path d="" fill="#000000" transform="translate(0,0)"/>
<path d="" fill="#000000" transform="translate(0,0)"/>
<path d="" fill="#000000" transform="translate(0,0)"/>
<path d="" fill="#000000" transform="translate(0,0)"/>
<path d="" fill="#000000" transform="translate(0,0)"/>
<path d="" fill="#000000" transform="translate(0,0)"/>
<path d="" fill="#000000" transform="translate(0,0)"/>
<path d="" fill="#000000" transform="translate(0,0)"/>
<path d="" fill="#000000" transform="translate(0,0)"/>
<path d="" fill="#000000" transform="translate(0,0)"/>
<path d="" fill="#000000" transform="translate(0,0)"/>
<path d="" fill="#000000" transform="translate(0,0)"/>
<path d="" fill="#000000" transform="translate(0,0)"/>
<path d="" fill="#000000" transform="translate(0,0)"/>
<path d="" fill="#000000" transform="translate(0,0)"/>
<path d="" fill="#000000" transform="translate(0,0)"/>
<path d="" fill="#000000" transform="translate(0,0)"/>
<path d="" fill="#000000" transform="translate(0,0)"/>
<path d="" fill="#000000" transform="translate(0,0)"/>
<path d="" fill="#000000" transform="translate(0,0)"/>
<path d="" fill="#000000" transform="translate(0,0)"/>
<path d="" fill="#000000" transform="translate(0,0)"/>
<path d="" fill="#000000" transform="translate(0,0)"/>
<path d="" fill="#000000" transform="translate(0,0)"/>
<path d="" fill="#000000" transform="translate(0,0)"/>
<path d="" fill="#000000" transform="translate(0,0)"/>
<path d="" fill="#000000" transform="translate(0,0)"/>
<path d="" fill="#000000" transform="translate(0,0)"/>
<path d="" fill="#000000" transform="translate(0,0)"/>
</svg>
